<svg width="140" height="140" viewBox="0 0 140 140" version="1.1" xmlns="http://www.w3.org/2000/svg" xmlns:xlink="http://www.w3.org/1999/xlink">
<title>favicon-color</title>
<desc>Created using Figma</desc>
<g id="Canvas">
<g id="favicon-color">
<g id="Group">
<g id="Group">
<g id="Group">
<g id="Vector">
<use xlink:href="#path0_fill" transform="translate(32.96 47.41)" fill="#FFD29C"/>
</g>
<g id="Vector">
<use xlink:href="#path1_fill" transform="translate(31.96 46.4)" fill="#EDBD82"/>
</g>
</g>
<g id="Group">
<g id="Vector">
<use xlink:href="#path2_fill" transform="translate(37.48 8.03)" fill="url(#paint2_linear)"/>
</g>
<g id="Vector">
<use xlink:href="#path3_fill" transform="translate(36.48 7.04)" fill="#EDBD82"/>
</g>
</g>
<g id="Group">
<g id="Group">
<g id="Group">
<g id="Vector">
<use xlink:href="#path4_fill" transform="translate(45.7186 43.12)" fill="url(#paint4_radial)"/>
</g>
<g id="Vector">
<use xlink:href="#path5_fill" transform="translate(48.63 49.68)" fill="#312D2D"/>
</g>
</g>
<g id="Group">
<g id="Vector">
<use xlink:href="#path6_fill" transform="translate(78.5944 43.15)" fill="url(#paint6_radial)"/>
</g>
<g id="Vector">
<use xlink:href="#path7_fill" transform="translate(81.51 49.68)" fill="#312D2D"/>
</g>
</g>
</g>
<g id="Vector">
<use xlink:href="#path8_fill" transform="translate(65.3512 63.95)" fill="#DBA689"/>
</g>
<g id="Vector">
<use xlink:href="#path9_fill" transform="translate(58.4962 71.7618)" fill="#795548"/>
</g>
</g>
<g id="Group">
<g id="Group">
<g id="Vector">
<use xlink:href="#path10_fill" transform="translate(33.0652 -1.73472e-18)" fill="url(#paint10_radial)"/>
</g>
</g>
<g id="Vector">
<use xlink:href="#path11_fill" transform="translate(33.0652 -1.73472e-18)" fill="#3F2720"/>
</g>
</g>
</g>
<g id="Group">
<g id="Vector">
<use xlink:href="#path12_fill" transform="translate(11.63 108.34)" fill="#A2A2ED"/>
</g>
<g id="Vector">
<use xlink:href="#path13_fill" transform="translate(14.447 106.86)" fill="#8787DD"/>
</g>
</g>
<g id="Group">
<g id="Vector">
<use xlink:href="#path14_fill" transform="translate(10.6519 91.7484)" fill="#FFD29C"/>
</g>
<g id="Vector">
<use xlink:href="#path15_fill" transform="translate(10.0152 91.1216)" fill="#E3B57C"/>
</g>
</g>
<g id="Group">
<g id="Vector">
<use xlink:href="#path16_fill" transform="translate(106.03 97.7484)" fill="#FFD29C"/>
</g>
<g id="Vector">
<use xlink:href="#path17_fill" transform="translate(105.39 97.1216)" fill="#E3B57C"/>
</g>
</g>
<g id="Group">
<g id="Vector">
<use xlink:href="#path18_fill" transform="translate(24 70.64)" fill="#4CA6D3"/>
</g>
<g id="Vector">
<use xlink:href="#path19_fill" transform="translate(22.5 69.14)" fill="#4295D2"/>
</g>
</g>
</g>
</g>
</g>
<defs>
<linearGradient id="paint2_linear" x1="0" y1="0" x2="1" y2="0" gradientUnits="userSpaceOnUse" gradientTransform="matrix(0 -81.7661 81.7661 0 -8.36305 82.5314)">
<stop offset="0" stop-color="#FFD29C"/>
<stop offset="0.0237" stop-color="#FFD39E"/>
<stop offset="0.3158" stop-color="#FCD8AF"/>
<stop offset="0.6295" stop-color="#FADCBA"/>
<stop offset="1" stop-color="#F9DDBD"/>
</linearGradient>
<radialGradient id="paint4_radial" cx="0.5" cy="0.5" r="0.5" gradientUnits="userSpaceOnUse" gradientTransform="matrix(11.9134 0 0 11.9134 1.88845 -2.8893)">
<stop offset="0.0905" stop-color="#454140"/>
<stop offset="1" stop-color="#454140"/>
</radialGradient>
<radialGradient id="paint6_radial" cx="0.5" cy="0.5" r="0.5" gradientUnits="userSpaceOnUse" gradientTransform="matrix(11.914 0 0 11.914 1.88469 -2.9195)">
<stop offset="0.0905" stop-color="#454140"/>
<stop offset="1" stop-color="#454140"/>
</radialGradient>
<radialGradient id="paint10_radial" cx="0.5" cy="0.5" r="0.5" gradientUnits="userSpaceOnUse" gradientTransform="matrix(97.6998 0 0 97.6998 -11.6554 -48.6063)">
<stop offset="0" stop-color="#6D4C41"/>
<stop offset="1" stop-color="#543930"/>
</radialGradient>
<path id="path0_fill" d="M 9.71 20.82C 4.35 20.82 -9.15527e-07 16.15 -9.15527e-07 10.41C -9.15527e-07 4.67 4.36 -1.37329e-06 9.71 -1.37329e-06L 64.36 -1.37329e-06C 69.72 -1.37329e-06 74.07 4.67 74.07 10.41C 74.07 16.15 69.71 20.82 64.36 20.82L 9.71 20.82Z"/>
<path id="path1_fill" d="M 65.37 2C 70.17 2 74.08 6.22 74.08 11.41C 74.08 16.6 70.17 20.82 65.37 20.82L 58 20.82L 18.08 20.82L 10.71 20.82C 5.91 20.82 2 16.6 2 11.41C 2 6.22 5.91 2 10.71 2L 18.08 2L 57.99 2L 65.37 2ZM 65.37 3.05176e-07L 58 3.05176e-07L 18.08 3.05176e-07L 10.71 3.05176e-07C 4.82 3.05176e-07 -9.15527e-07 5.14 -9.15527e-07 11.41C -9.15527e-07 17.69 4.82 22.82 10.71 22.82L 18.08 22.82L 57.99 22.82L 65.36 22.82C 71.25 22.82 76.07 17.68 76.07 11.41C 76.08 5.14 71.26 3.05176e-07 65.37 3.05176e-07Z"/>
<path id="path2_fill" d="M 32.52 83.21C 16.86 83.21 -4.57764e-07 71.07 -4.57764e-07 44.4C -4.57764e-07 32.02 3.56 20.61 10.02 12.27C 16.06 4.47 24.27 4.19617e-07 32.52 4.19617e-07C 40.77 4.19617e-07 48.97 4.47 55.02 12.27C 61.48 20.61 65.04 32.02 65.04 44.4C 65.04 56.49 61.53 66.59 54.9 73.61C 49.04 79.8 41.09 83.21 32.52 83.21Z"/>
<path id="path3_fill" d="M 33.52 2C 41.46 2 49.37 6.33 55.23 13.88C 61.56 22.04 65.04 33.23 65.04 45.4C 65.04 57.23 61.63 67.1 55.17 73.92C 49.5 79.91 41.81 83.21 33.52 83.21C 25.23 83.21 17.54 79.91 11.87 73.92C 5.41 67.1 2 57.23 2 45.4C 2 33.24 5.49 22.05 11.81 13.88C 17.67 6.33 25.58 2 33.52 2ZM 33.52 -3.05176e-07C 16.12 -3.05176e-07 -4.57764e-07 18.61 -4.57764e-07 45.39C -4.57764e-07 72.03 16.61 85.2 33.52 85.2C 50.43 85.2 67.04 72.03 67.04 45.39C 67.04 18.61 50.92 -3.05176e-07 33.52 -3.05176e-07Z"/>
<path id="path4_fill" d="M 0.271449 3.58C 0.271449 3.58 0.401446 3.39 0.651446 3.07C 0.721446 2.99 0.771447 2.91 0.871447 2.81C 0.981447 2.7 1.10145 2.59 1.24145 2.47C 1.38145 2.35 1.52145 2.23 1.67145 2.09C 1.82145 1.96 1.98145 1.86 2.15145 1.74C 2.32145 1.63 2.49145 1.5 2.68145 1.39C 2.87145 1.29 3.08145 1.18 3.28145 1.07C 3.49145 0.950001 3.71145 0.859998 3.94145 0.769998C 4.17145 0.679998 4.41145 0.590002 4.65145 0.500002C 5.14145 0.360002 5.65145 0.210001 6.19145 0.140001C 6.72145 0.0400009 7.27145 0.0300015 7.82145 1.52588e-06C 8.37145 0.0300015 8.91145 0.0300009 9.45145 0.140001C 9.98145 0.210001 10.5014 0.360002 10.9914 0.500002C 11.2314 0.580002 11.4714 0.669998 11.7014 0.769998C 11.9314 0.859998 12.1514 0.950001 12.3614 1.07C 12.5714 1.18 12.7714 1.29 12.9614 1.39C 13.1514 1.5 13.3214 1.63 13.4914 1.74C 13.6614 1.86 13.8214 1.96 13.9614 2.08C 14.1014 2.2 14.2314 2.32 14.3614 2.43C 14.4814 2.54 14.6014 2.64 14.7014 2.74C 14.8014 2.84 14.8814 2.95 14.9614 3.03C 15.2714 3.39 15.4214 3.6 15.4214 3.6C 15.9314 4.3 15.7714 5.29 15.0614 5.79C 14.6314 6.1 14.1014 6.16 13.6314 6L 13.3414 5.9C 13.3414 5.9 13.1514 5.83 12.8514 5.7C 12.7714 5.67 12.7014 5.63 12.6014 5.59C 12.5014 5.56 12.4114 5.52 12.3014 5.48C 12.0914 5.4 11.8614 5.31 11.6014 5.23C 11.4714 5.19 11.3414 5.14 11.2014 5.1C 11.0614 5.07 10.9214 5.03 10.7714 4.99C 10.7014 4.97 10.6214 4.95 10.5514 4.93C 10.4714 4.92 10.4014 4.9 10.3214 4.89C 10.1614 4.86 10.0114 4.82 9.85145 4.79C 9.52145 4.75 9.19145 4.68 8.85145 4.67C 8.51145 4.63 8.16145 4.64 7.82145 4.62C 7.47145 4.64 7.12145 4.63 6.79145 4.67C 6.45145 4.69 6.12145 4.76 5.79145 4.79C 5.63145 4.82 5.48145 4.86 5.32145 4.89C 5.24145 4.9 5.16145 4.92 5.09145 4.93C 5.02145 4.95 4.94145 4.97 4.87145 4.99C 4.72145 5.03 4.58145 5.06 4.44145 5.1C 4.30145 5.14 4.17145 5.19 4.04145 5.23C 3.91145 5.27 3.79145 5.31 3.67145 5.34C 3.57145 5.38 3.47145 5.41 3.38145 5.44C 3.29145 5.47 3.20145 5.5 3.11145 5.53C 3.01145 5.57 2.91145 5.63 2.82145 5.67C 2.46145 5.85 2.25145 5.94 2.25145 5.94C 1.42145 6.28 0.481448 5.89 0.141448 5.07C -0.0985524 4.59 -0.0185513 4.01 0.271449 3.58Z"/>
<path id="path5_fill" d="M 4.93 10.2C 7.65277 10.2 9.86 7.91665 9.86 5.1C 9.86 2.28335 7.65277 0 4.93 0C 2.20724 0 0 2.28335 0 5.1C 0 7.91665 2.20724 10.2 4.93 10.2Z"/>
<path id="path6_fill" d="M 13.4556 5.95C 13.4556 5.95 13.2356 5.86 12.8856 5.68C 12.7956 5.64 12.6956 5.58 12.5956 5.54C 12.5056 5.52 12.4156 5.48 12.3256 5.45C 12.2356 5.42 12.1356 5.38 12.0356 5.35C 11.9156 5.31 11.7956 5.28 11.6656 5.24C 11.5356 5.2 11.4056 5.15 11.2656 5.11C 11.1256 5.07 10.9856 5.04 10.8356 5C 10.7656 4.98 10.6856 4.96 10.6156 4.94C 10.5356 4.93 10.4656 4.91 10.3856 4.9C 10.2256 4.87 10.0756 4.83 9.91559 4.8C 9.58559 4.76 9.25559 4.69 8.91559 4.68C 8.57559 4.64 8.22559 4.65 7.88559 4.63C 7.53559 4.65 7.18559 4.64 6.85559 4.68C 6.51559 4.7 6.18559 4.77 5.85559 4.8C 5.69559 4.83 5.54559 4.87 5.38559 4.9C 5.30559 4.91 5.22559 4.93 5.15559 4.94C 5.08559 4.96 5.00559 4.98 4.93559 5C 4.78559 5.04 4.64559 5.08 4.50559 5.11C 4.36559 5.15 4.23559 5.2 4.10559 5.24C 3.84559 5.31 3.61559 5.4 3.40559 5.49C 3.29559 5.53 3.20559 5.57 3.10559 5.6C 3.01559 5.64 2.93559 5.68 2.85559 5.71C 2.55559 5.84 2.36559 5.91 2.36559 5.91L 2.08559 6.01C 1.26559 6.3 0.365591 5.86 0.0855906 5.04C -0.0844094 4.54 0.00558969 4.01 0.29559 3.6C 0.29559 3.6 0.455589 3.38 0.755589 3.03C 0.835589 2.94 0.915591 2.84 1.01559 2.74C 1.11559 2.64 1.23559 2.54 1.35559 2.43C 1.47559 2.32 1.61559 2.2 1.75559 2.08C 1.89559 1.96 2.06559 1.86 2.22559 1.74C 2.39559 1.62 2.56559 1.5 2.75559 1.39C 2.94559 1.29 3.15559 1.18 3.35559 1.07C 3.56559 0.95 3.78559 0.860001 4.01559 0.770001C 4.24559 0.680001 4.47559 0.59 4.72559 0.5C 5.21559 0.36 5.72559 0.21 6.26559 0.14C 6.79559 0.0399997 7.34559 0.0300003 7.89559 3.05176e-07C 8.44559 0.0300003 8.98559 0.0299997 9.52559 0.14C 10.0556 0.2 10.5756 0.36 11.0656 0.5C 11.3056 0.58 11.5456 0.670001 11.7756 0.770001C 12.0056 0.860001 12.2256 0.95 12.4356 1.07C 12.6456 1.18 12.8456 1.29 13.0356 1.39C 13.2256 1.5 13.3956 1.63 13.5656 1.74C 13.7356 1.86 13.8856 1.96 14.0456 2.09C 14.1956 2.22 14.3456 2.35 14.4756 2.47C 14.6056 2.59 14.7356 2.7 14.8456 2.81C 14.9356 2.91 14.9956 2.99 15.0656 3.07C 15.3156 3.38 15.4456 3.58 15.4456 3.58C 15.9456 4.32 15.7556 5.32 15.0156 5.83C 14.5256 6.11 13.9456 6.15 13.4556 5.95Z"/>
<path id="path7_fill" d="M 4.93 10.2C 7.65277 10.2 9.86 7.91665 9.86 5.1C 9.86 2.28335 7.65277 0 4.93 0C 2.20724 0 2.13623e-06 2.28335 2.13623e-06 5.1C 2.13623e-06 7.91665 2.20724 10.2 4.93 10.2Z"/>
<path id="path8_fill" d="M 8.50876 0.0799976C 8.39876 0.0399976 8.29876 0.0100034 8.18876 3.35693e-06L 1.11876 3.35693e-06C 1.00876 0.0100034 0.89876 0.0399976 0.79876 0.0799976C 0.15876 0.339998 -0.191243 1 0.108757 1.71C 0.408757 2.42 1.81876 4.4 4.65876 4.4C 7.49876 4.4 8.90876 2.41 9.20876 1.71C 9.49876 1 9.14876 0.339998 8.50876 0.0799976Z"/>
<path id="path9_fill" d="M 19.9238 0.348175C 16.7338 2.23817 6.29381 2.23817 3.11381 0.348175C 1.28381 -0.741825 -0.58619 0.928173 0.17381 2.58817C 0.92381 4.21817 6.62381 8.00818 11.5438 8.00818C 16.4638 8.00818 22.0938 4.21817 22.8438 2.58817C 23.5938 0.928173 21.7538 -0.741825 19.9238 0.348175Z"/>
<path id="path10_fill" d="M 36.9548 2.09808e-07C 36.9448 2.09808e-07 36.9448 2.09808e-07 36.9348 2.09808e-07C 36.9248 2.09808e-07 36.9248 2.09808e-07 36.9148 2.09808e-07C -8.51523 0.24 0.784769 52.14 0.784769 52.14C 0.784769 52.14 5.88477 61.13 5.88477 60.95C 5.72477 53.7 8.62477 40.86 10.6848 35.4C 11.7248 32.64 14.5848 31.04 17.4748 31.57C 21.9348 32.37 29.0248 33.37 36.8548 33.37C 36.8848 33.37 36.9148 33.37 36.9348 33.37C 36.9648 33.37 36.9948 33.37 37.0148 33.37C 44.8448 33.37 51.9348 32.37 56.3848 31.56C 59.2848 31.03 62.1448 32.64 63.1748 35.39C 65.2348 40.86 68.1348 53.69 67.9748 60.94C 67.9748 61.12 73.0748 52.13 73.0748 52.13C 73.0748 52.13 82.3848 0.24 36.9548 2.09808e-07Z"/>
<path id="path11_fill" d="M 36.9548 2.09808e-07C 36.9448 2.09808e-07 36.9448 2.09808e-07 36.9348 2.09808e-07C 36.9248 2.09808e-07 36.9248 2.09808e-07 36.9148 2.09808e-07C -8.51523 0.24 0.784769 52.14 0.784769 52.14C 0.784769 52.14 5.78477 60.95 5.88477 60.95C 5.85477 59.47 5.95477 57.75 6.14477 55.92C 6.02477 55.63 3.68477 51.17 3.66477 51.13C 3.42477 49.53 2.73477 44.15 3.11477 37.57C 3.52477 30.53 5.28477 20.61 11.3348 13.35C 17.0048 6.55 25.6048 3.07 36.8948 3C 36.9048 3 36.9248 3 36.9348 3C 48.2548 3.06 56.8648 6.54 62.5348 13.35C 73.3448 26.31 70.7148 47.68 70.2048 51.14C 70.1848 51.18 67.7448 55.72 67.7148 55.79C 67.9148 57.68 68.0248 59.44 67.9848 60.96C 68.0748 60.96 73.0848 52.15 73.0848 52.15C 73.0848 52.15 82.3848 0.24 36.9548 2.09808e-07Z"/>
<path id="path12_fill" d="M 12.82 2.74658e-06C 12.83 0.150003 12.83 0.3 12.83 0.45C 12.83 4.55 10.85 7.87 8.42 7.87C 5.98 7.87 4.01 4.55 4.01 0.45C 4.01 0.3 4.02 0.150003 4.02 2.74658e-06C 1.61 1.75 1.14441e-07 4.87 1.14441e-07 8.45L 1.14441e-07 9.1C 1.14441e-07 10.5 0.96 11.64 2.15 11.64L 14.69 11.64C 15.88 11.64 16.84 10.51 16.84 9.1L 16.84 8.45C 16.84 4.87 15.23 1.74 12.82 2.74658e-06Z"/>
<path id="path13_fill" d="M 5.603 9.35C 14.603 9.35 10.013 6.03 10.013 1.93C 10.013 1.78 10.003 1.63 10.003 1.48C 8.723 0.550003 7.213 -6.10352e-07 5.603 -6.10352e-07C 3.983 -6.10352e-07 2.483 0.550003 1.203 1.48C 1.193 1.63 1.193 1.78 1.193 1.93C 1.183 6.03 -3.447 9.35 5.603 9.35Z"/>
<path id="path14_fill" d="M 23.3281 11.0216C 23.2181 8.18161 21.0981 2.32161 18.3281 1.83161C 18.1581 1.80161 18.0081 1.72161 17.9181 1.58161C 17.4781 0.911609 16.0681 -0.888394 13.4881 0.531606C 12.5281 1.06161 12.1881 1.53161 12.3481 2.21161C 12.2281 2.35161 12.0081 2.52161 11.6881 2.39161C 10.6481 1.23161 9.36808 0.991609 7.87808 2.15161C 6.18808 3.47161 6.18808 4.41161 6.49808 5.34161L 6.48808 5.35161C 6.48808 5.35161 6.40808 6.00161 5.92808 5.94161C 5.41808 5.50161 4.79808 5.50161 3.83808 6.20161C 1.23808 8.08161 2.30808 9.86161 2.74808 10.9116C 2.68808 11.0116 2.58808 11.0816 2.42808 11.0716C 2.08808 10.8916 1.65808 10.8916 1.07808 11.2216C -0.301917 12.0116 -0.101917 14.6116 0.288083 15.4616C 0.718083 16.3916 3.08808 19.6516 3.90808 20.5716C 4.09808 20.7816 4.32808 20.9316 4.57808 21.0316C 4.54808 21.0216 4.51808 21.0116 4.49808 21.0016C 5.20808 21.4416 6.44808 21.9716 7.65808 21.2216C 7.65808 21.2216 8.42808 20.6616 8.49808 20.0716C 9.80808 20.8016 11.6181 19.4416 11.6181 19.4416C 12.4681 18.7916 12.6881 18.0616 12.6581 17.4316C 13.0881 17.6916 13.5581 17.7916 14.0081 17.8016C 15.3681 17.8416 16.6181 17.0416 16.6181 17.0416C 18.5681 15.9316 18.9581 14.7716 18.9481 14.0016C 19.9581 14.6316 21.2081 14.1616 21.2081 14.1616C 23.3981 13.1716 23.3281 11.0216 23.3281 11.0216Z"/>
<path id="path15_fill" d="M 24.6048 11.6284C 24.6048 11.6284 24.6048 11.6184 24.6048 11.6284C 24.4848 8.57842 22.2448 2.39842 19.0948 1.85842C 17.8448 -0.0515774 15.8748 -0.52158 13.8248 0.59842C 13.2048 0.93842 12.5248 1.40842 12.3548 2.14842C 11.0948 1.07842 9.61476 1.10842 8.13476 2.26842C 6.38476 3.62842 6.21476 4.77842 6.41476 5.73842C 5.41476 5.35842 4.45476 6.04842 4.10476 6.30842C 1.74476 8.00842 2.02476 9.78842 2.44476 10.9384C 2.11476 10.9684 1.76476 11.0784 1.40476 11.2884C -0.375244 12.2984 -0.135244 15.2984 0.354756 16.3484C 0.824756 17.3584 3.21476 20.6584 4.07476 21.6084C 4.26476 21.8184 4.50476 21.9984 4.77476 22.1484C 4.78476 22.1484 4.78476 22.1584 4.79476 22.1584C 5.52476 22.6184 6.26476 22.8484 6.97476 22.8484C 7.56476 22.8484 8.14476 22.6884 8.67476 22.3484C 8.78476 22.2684 9.20476 21.9384 9.49476 21.4784C 10.9948 21.7784 12.5648 20.6084 12.6348 20.5484C 13.3148 20.0284 13.6548 19.4584 13.8148 18.9384C 14.0748 19.0084 14.3448 19.0384 14.6348 19.0484C 16.1548 19.0784 17.5448 18.2184 17.5748 18.1984C 19.1648 17.2984 19.8448 16.3184 20.0948 15.4884C 21.0948 15.7184 22.0248 15.3784 22.1048 15.3484C 24.6548 14.2184 24.6148 11.7284 24.6048 11.6284ZM 21.9048 13.1484C 21.1148 13.7384 20.4048 13.8284 19.8248 13.5884C 19.2548 13.1184 18.7448 12.1684 18.7448 12.1684C 16.4948 8.03842 14.9448 5.96842 14.9448 5.96842C 14.7948 5.78842 14.4648 5.21842 13.9948 4.92842C 13.4048 4.56842 13.5748 5.20842 13.5748 5.20842C 16.1948 9.28842 17.7848 12.5484 17.7848 12.5484C 18.4648 13.7884 18.3448 14.6584 18.1448 15.1484C 17.9248 15.7384 16.6148 16.5784 16.6148 16.5784C 13.9748 18.1584 12.7548 16.0484 12.7548 16.0484C 12.7548 16.0484 11.2048 14.1084 8.61476 9.26842C 8.61476 9.26842 8.20476 8.59842 7.96476 9.05842C 7.96476 9.05842 8.10476 9.87842 8.48476 10.6584C 8.48476 10.6584 9.66476 13.4584 11.9448 16.6884C 11.9648 16.7384 11.9748 16.7884 11.9948 16.8384C 12.0348 16.9484 12.0748 17.0684 12.1048 17.1784C 12.1148 17.2184 12.1148 17.2584 12.1248 17.3084C 12.1448 17.4184 12.1648 17.5284 12.1648 17.6384C 12.1648 17.6784 12.1548 17.7084 12.1548 17.7384C 12.1548 17.8484 12.1448 17.9484 12.1248 18.0484C 12.1148 18.0784 12.1048 18.1084 12.0948 18.1384C 12.0748 18.2384 12.0448 18.3384 12.0048 18.4284C 11.9948 18.4584 11.9748 18.4884 11.9648 18.5184C 11.9248 18.6084 11.8848 18.6884 11.8348 18.7684C 11.8148 18.7984 11.7848 18.8284 11.7648 18.8684C 11.7148 18.9384 11.6748 18.9984 11.6148 19.0584C 11.5748 19.0984 11.5248 19.1384 11.4848 19.1784C 11.4448 19.2184 11.4048 19.2584 11.3548 19.2984C 11.2648 19.3684 11.1648 19.4384 11.0748 19.4884C 10.8548 19.6184 10.6548 19.6884 10.4448 19.7484C 10.3848 19.7684 10.3248 19.7684 10.2648 19.7784C 10.1248 19.7984 9.99476 19.8184 9.86476 19.8184C 9.80476 19.8184 9.73476 19.8084 9.67476 19.7984C 9.55476 19.7784 9.43476 19.7584 9.32476 19.7184C 9.27476 19.6984 9.21476 19.6884 9.16476 19.6584C 9.04476 19.6084 8.92476 19.5384 8.80476 19.4684C 8.77476 19.4484 8.74476 19.4384 8.71476 19.4184C 8.12476 18.8384 6.76476 17.2784 4.78476 13.7084C 4.78476 13.7084 4.39476 12.8084 4.20476 13.1184C 4.20476 13.1184 4.00476 13.3584 4.55476 14.7384C 4.55476 14.7384 5.34476 16.7184 7.34476 19.3684C 8.07476 20.3784 8.00476 20.8684 7.71476 21.1784C 7.69476 21.1984 7.66476 21.2184 7.64476 21.2484C 7.50476 21.3784 7.33476 21.4784 7.16476 21.5684C 6.60476 21.6284 6.06476 21.4384 5.62476 21.1984C 5.57476 21.1484 5.50476 21.1084 5.43476 21.0784C 5.24476 20.9984 5.09476 20.8984 4.99476 20.7784C 4.14476 19.8284 1.86476 16.6584 1.48476 15.8284C 1.15476 15.1084 1.06476 12.9484 2.00476 12.4084C 2.48476 12.1284 2.67476 12.2284 2.73476 12.2684C 2.81476 12.3184 2.91476 12.3384 3.00476 12.3484C 3.37476 12.3684 3.71476 12.1984 3.90476 11.8784C 4.00476 11.7084 4.02476 11.4984 3.94476 11.3084L 3.82476 11.0384C 3.36476 9.98842 2.84476 8.79842 4.82476 7.36842C 5.71476 6.71842 5.97476 6.93842 6.12476 7.07842C 6.22476 7.15842 6.34476 7.21842 6.46476 7.22842C 7.15476 7.30842 7.59476 6.78842 7.71476 6.20842C 7.75476 6.07842 7.76476 5.93842 7.71476 5.79842C 7.53476 5.23842 7.30476 4.53842 8.88476 3.30842C 10.0048 2.43842 10.9448 2.48842 11.8248 3.46842C 11.8948 3.53842 11.9748 3.59842 12.0648 3.63842C 12.5748 3.83842 13.0848 3.70842 13.4548 3.27842C 13.5848 3.11842 13.6348 2.91842 13.5848 2.71842C 13.5348 2.52842 13.4748 2.25842 14.4048 1.74842C 15.8848 0.938422 17.0948 1.21842 17.9948 2.58842C 18.1748 2.86842 18.4748 3.04842 18.8248 3.11842C 18.9348 3.13842 19.0448 3.17842 19.1548 3.21842C 20.2848 5.01842 21.4748 7.27842 21.9948 8.26842C 22.9748 10.0684 23.6148 11.8584 21.9048 13.1484Z"/>
<path id="path16_fill" d="M 0.000251501 11.0216C 0.110252 8.18161 2.23025 2.32161 5.00025 1.83161C 5.17025 1.80161 5.32025 1.72161 5.41025 1.58161C 5.85026 0.911609 7.26026 -0.888394 9.84026 0.531606C 10.8003 1.06161 11.1403 1.53161 10.9803 2.21161C 11.1003 2.35161 11.3203 2.52161 11.6403 2.39161C 12.6803 1.23161 13.9603 0.991609 15.4503 2.15161C 17.1403 3.47161 17.1403 4.41161 16.8303 5.34161L 16.8403 5.35161C 16.8403 5.35161 16.9203 6.00161 17.4003 5.94161C 17.9103 5.50161 18.5303 5.50161 19.4902 6.20161C 22.0903 8.08161 21.0203 9.86161 20.5803 10.9116C 20.6403 11.0116 20.7403 11.0816 20.9003 11.0716C 21.2403 10.8916 21.6703 10.8916 22.2503 11.2216C 23.6303 12.0116 23.4303 14.6116 23.0403 15.4616C 22.6103 16.3916 20.2402 19.6516 19.4202 20.5716C 19.2302 20.7816 19.0003 20.9316 18.7503 21.0316C 18.7803 21.0216 18.8103 21.0116 18.8303 21.0016C 18.1203 21.4416 16.8802 21.9716 15.6702 21.2216C 15.6702 21.2216 14.9003 20.6616 14.8303 20.0716C 13.5203 20.8016 11.7103 19.4416 11.7103 19.4416C 10.8603 18.7916 10.6403 18.0616 10.6702 17.4316C 10.2402 17.6916 9.77025 17.7916 9.32025 17.8016C 7.96025 17.8416 6.71025 17.0416 6.71025 17.0416C 4.76025 15.9316 4.37026 14.7716 4.38026 14.0016C 3.37026 14.6316 2.12025 14.1616 2.12025 14.1616C -0.0697458 13.1716 0.000251501 11.0216 0.000251501 11.0216Z"/>
<path id="path17_fill" d="M 7.05894e-05 11.6284C 7.05894e-05 11.6284 7.05894e-05 11.6184 7.05894e-05 11.6284C 0.120071 8.57842 2.36007 2.39842 5.51007 1.85842C 6.76007 -0.0515774 8.73007 -0.52158 10.7801 0.59842C 11.4001 0.93842 12.0801 1.40842 12.2501 2.14842C 13.5101 1.07842 14.9901 1.10842 16.4701 2.26842C 18.2201 3.62842 18.3901 4.77842 18.1901 5.73842C 19.1901 5.35842 20.1501 6.04842 20.5001 6.30842C 22.8601 8.00842 22.5801 9.78842 22.1601 10.9384C 22.4901 10.9684 22.8401 11.0784 23.2001 11.2884C 24.9801 12.2984 24.7401 15.2984 24.2501 16.3484C 23.7801 17.3584 21.3901 20.6584 20.5301 21.6084C 20.3401 21.8184 20.1001 21.9984 19.8301 22.1484C 19.8201 22.1484 19.8201 22.1584 19.8101 22.1584C 19.0801 22.6184 18.3401 22.8484 17.6301 22.8484C 17.0401 22.8484 16.4601 22.6884 15.9301 22.3484C 15.8201 22.2684 15.4001 21.9384 15.1101 21.4784C 13.6101 21.7784 12.0401 20.6084 11.9701 20.5484C 11.2901 20.0284 10.9501 19.4584 10.7901 18.9384C 10.5301 19.0084 10.2601 19.0384 9.97007 19.0484C 8.45007 19.0784 7.06007 18.2184 7.03007 18.1984C 5.44007 17.2984 4.76007 16.3184 4.51007 15.4884C 3.51007 15.7184 2.58007 15.3784 2.50007 15.3484C -0.0499294 14.2184 7.05894e-05 11.7284 7.05894e-05 11.6284ZM 2.70007 13.1484C 3.49007 13.7384 4.20007 13.8284 4.78007 13.5884C 5.35007 13.1184 5.86007 12.1684 5.86007 12.1684C 8.11007 8.03842 9.66007 5.96842 9.66007 5.96842C 9.81007 5.78842 10.1401 5.21842 10.6101 4.92842C 11.2001 4.56842 11.0301 5.20842 11.0301 5.20842C 8.41007 9.28842 6.82007 12.5484 6.82007 12.5484C 6.14007 13.7884 6.26007 14.6584 6.46007 15.1484C 6.68007 15.7384 7.99007 16.5784 7.99007 16.5784C 10.6301 18.1584 11.8501 16.0484 11.8501 16.0484C 11.8501 16.0484 13.4001 14.1084 15.9901 9.26842C 15.9901 9.26842 16.4001 8.59842 16.6401 9.05842C 16.6401 9.05842 16.5001 9.87842 16.1201 10.6584C 16.1201 10.6584 14.9401 13.4584 12.6601 16.6884C 12.6401 16.7384 12.6301 16.7884 12.6101 16.8384C 12.5701 16.9484 12.5301 17.0684 12.5001 17.1784C 12.4901 17.2184 12.4901 17.2584 12.4801 17.3084C 12.4601 17.4184 12.4401 17.5284 12.4401 17.6384C 12.4401 17.6784 12.4501 17.7084 12.4501 17.7384C 12.4501 17.8484 12.4601 17.9484 12.4801 18.0484C 12.4901 18.0784 12.5001 18.1084 12.5101 18.1384C 12.5301 18.2384 12.5601 18.3384 12.6001 18.4284C 12.6101 18.4584 12.6301 18.4884 12.6401 18.5184C 12.6801 18.6084 12.7201 18.6884 12.7701 18.7684C 12.7901 18.7984 12.8201 18.8284 12.8401 18.8684C 12.8901 18.9384 12.9301 18.9984 12.9901 19.0584C 13.0301 19.0984 13.0801 19.1384 13.1201 19.1784C 13.1601 19.2184 13.2001 19.2584 13.2501 19.2984C 13.3401 19.3684 13.4401 19.4384 13.5301 19.4884C 13.7501 19.6184 13.9501 19.6884 14.1601 19.7484C 14.2201 19.7684 14.2801 19.7684 14.3401 19.7784C 14.4801 19.7984 14.6101 19.8184 14.7401 19.8184C 14.8001 19.8184 14.8701 19.8084 14.9301 19.7984C 15.0501 19.7784 15.1701 19.7584 15.2801 19.7184C 15.3301 19.6984 15.3901 19.6884 15.4401 19.6584C 15.5601 19.6084 15.6801 19.5384 15.8001 19.4684C 15.8301 19.4484 15.8601 19.4384 15.8901 19.4184C 16.4801 18.8384 17.8401 17.2784 19.8201 13.7084C 19.8201 13.7084 20.2101 12.8084 20.4001 13.1184C 20.4001 13.1184 20.6001 13.3584 20.0501 14.7384C 20.0501 14.7384 19.2601 16.7184 17.2601 19.3684C 16.5301 20.3784 16.6001 20.8684 16.8901 21.1784C 16.9101 21.1984 16.9401 21.2184 16.9601 21.2484C 17.1001 21.3784 17.2701 21.4784 17.4401 21.5684C 18.0001 21.6284 18.5401 21.4384 18.9801 21.1984C 19.0301 21.1484 19.1001 21.1084 19.1701 21.0784C 19.3601 20.9984 19.5101 20.8984 19.6101 20.7784C 20.4601 19.8284 22.7401 16.6584 23.1201 15.8284C 23.4501 15.1084 23.5401 12.9484 22.6001 12.4084C 22.1201 12.1284 21.9301 12.2284 21.8701 12.2684C 21.7901 12.3184 21.6901 12.3384 21.6001 12.3484C 21.2301 12.3684 20.8901 12.1984 20.7001 11.8784C 20.6001 11.7084 20.5801 11.4984 20.6601 11.3084L 20.7801 11.0384C 21.2401 9.98842 21.7601 8.79842 19.7801 7.36842C 18.8901 6.71842 18.6301 6.93842 18.4801 7.07842C 18.3801 7.15842 18.2601 7.21842 18.1401 7.22842C 17.4501 7.30842 17.0101 6.78842 16.8901 6.20842C 16.8501 6.07842 16.8401 5.93842 16.8901 5.79842C 17.0701 5.23842 17.3001 4.53842 15.7201 3.30842C 14.6001 2.43842 13.6601 2.48842 12.7801 3.46842C 12.7101 3.53842 12.6301 3.59842 12.5401 3.63842C 12.0301 3.83842 11.5201 3.70842 11.1501 3.27842C 11.0201 3.11842 10.9701 2.91842 11.0201 2.71842C 11.0701 2.52842 11.1301 2.25842 10.2001 1.74842C 8.72007 0.938422 7.51007 1.21842 6.61007 2.58842C 6.43007 2.86842 6.13007 3.04842 5.78007 3.11842C 5.67007 3.13842 5.56007 3.17842 5.45007 3.21842C 4.32007 5.01842 3.13007 7.27842 2.61007 8.26842C 1.63007 10.0684 1.00007 11.8584 2.70007 13.1484Z"/>
<path id="path18_fill" d="M 6.5 67.83C 2.92 67.83 0 64.91 0 61.33L 0 6.5C 0 2.92 2.92 -1.83105e-06 6.5 -1.83105e-06L 85.5 -1.83105e-06C 89.08 -1.83105e-06 92 2.92 92 6.5L 92 61.33C 92 64.91 89.08 67.83 85.5 67.83L 6.5 67.83Z"/>
<path id="path19_fill" d="M 87 3C 89.76 3 92 5.24 92 8L 92 62.83C 92 65.59 89.76 67.83 87 67.83L 8 67.83C 5.24 67.83 3 65.59 3 62.83L 3 8C 3 5.24 5.24 3 8 3L 87 3ZM 87 -1.83105e-06L 8 -1.83105e-06C 3.58 -1.83105e-06 0 3.58 0 8L 0 62.83C 0 67.25 3.58 70.83 8 70.83L 87 70.83C 91.42 70.83 95 67.25 95 62.83L 95 8C 95 3.58 91.42 -1.83105e-06 87 -1.83105e-06Z"/>
</defs>
</svg>
