<?xml version="1.0" standalone="no"?>
<!DOCTYPE svg PUBLIC "-//W3C//DTD SVG 20010904//EN"
 "http://www.w3.org/TR/2001/REC-SVG-20010904/DTD/svg10.dtd">
<svg version="1.0" xmlns="http://www.w3.org/2000/svg"
 width="700.000000pt" height="700.000000pt" viewBox="0 0 700.000000 700.000000"
 preserveAspectRatio="xMidYMid meet">
<metadata>
Created by potrace 1.11, written by Peter Selinger 2001-2013
</metadata>
<g transform="translate(0.000000,700.000000) scale(0.100000,-0.100000)"
fill="#000000" stroke="none">
<path d="M3250 6989 c-916 -93 -1454 -664 -1574 -1669 -31 -257 -30 -636 3
-846 6 -43 4 -57 -21 -106 -79 -160 -77 -358 4 -524 42 -86 138 -189 222 -238
36 -21 66 -45 66 -52 0 -10 -55 -13 -262 -16 l-263 -3 -65 -31 c-127 -60 -212
-179 -231 -322 -4 -37 -8 -241 -9 -454 0 -214 -3 -388 -7 -388 -5 0 -17 7 -27
15 -28 21 -100 19 -145 -4 -66 -34 -121 -110 -121 -167 0 -21 -5 -24 -33 -24
-21 0 -49 -11 -73 -29 -83 -59 -114 -120 -100 -195 6 -31 4 -35 -31 -53 -56
-29 -78 -74 -78 -158 0 -59 5 -78 30 -123 49 -85 164 -236 201 -261 71 -49
166 -47 214 4 15 16 35 25 54 25 17 1 49 7 71 15 22 8 41 15 43 15 1 0 2 -217
2 -482 1 -266 5 -515 9 -554 21 -180 151 -321 326 -353 83 -15 4007 -15 4090
0 175 32 305 173 326 353 4 39 8 223 9 409 l0 337 24 -15 c13 -9 46 -18 74
-22 35 -4 58 -13 73 -29 47 -50 143 -52 213 -3 36 25 171 199 208 269 18 35
23 61 23 115 0 84 -22 129 -78 158 -35 18 -37 22 -31 53 11 57 -4 102 -49 151
-48 52 -84 73 -127 73 -27 0 -30 3 -30 33 0 51 -57 124 -122 158 -44 23 -116
25 -144 4 -10 -8 -22 -15 -26 -15 -5 0 -8 242 -8 538 -1 295 -5 567 -9 604
-19 143 -104 262 -231 322 l-65 31 -262 3 c-210 3 -263 6 -263 16 0 8 31 32
69 54 253 151 354 492 224 758 l-29 59 14 105 c21 162 20 612 -2 780 -36 280
-82 465 -165 669 -245 603 -723 941 -1430 1011 -120 12 -359 11 -481 -1z
m-620 -1584 c301 -49 551 -68 880 -68 343 1 518 15 923 77 154 24 236 0 319
-93 38 -42 52 -70 87 -174 92 -279 182 -722 203 -1001 10 -147 10 -155 -16
-283 -15 -73 -40 -175 -57 -228 l-30 -95 -1439 0 -1439 0 -31 98 c-16 53 -41
153 -56 222 -22 109 -25 140 -19 240 16 291 101 725 206 1047 34 103 46 129
86 173 95 106 162 120 383 85z m-842 -1183 c39 -69 45 -89 58 -192 8 -63 24
-157 35 -209 11 -51 17 -96 13 -100 -10 -10 -112 106 -138 158 -33 64 -56 157
-56 225 0 60 27 196 38 196 4 0 26 -35 50 -78z m3496 9 c29 -125 15 -244 -40
-352 -26 -52 -128 -168 -138 -158 -4 4 2 49 13 100 11 52 27 147 35 211 14
106 19 125 58 193 24 41 46 75 50 75 3 0 14 -31 22 -69z m303 -864 c18 -9 48
-33 67 -53 71 -74 67 40 64 -1559 l-3 -1440 -27 -41 c-14 -22 -40 -53 -58 -67
-71 -60 53 -57 -2130 -57 -2183 0 -2059 -3 -2130 57 -18 14 -44 45 -58 67
l-27 41 -3 1430 c-1 787 0 1444 3 1461 7 39 50 105 89 135 65 51 -41 48 2141
46 1922 -2 2042 -3 2072 -20z m-4511 -1084 l44 -28 0 -290 c-1 -345 15 -341
-159 -37 -43 74 -69 94 -57 45 12 -49 65 -155 138 -275 61 -103 70 -122 64
-151 -11 -56 -80 -104 -132 -91 -36 9 -111 99 -184 219 -67 111 -80 128 -80
98 1 -35 47 -131 112 -230 36 -55 69 -109 72 -121 15 -47 -62 -69 -116 -34
-61 40 -202 245 -211 307 -8 51 8 112 33 125 10 5 32 10 48 10 48 0 59 22 38
80 -22 62 -15 98 27 137 49 46 71 55 103 41 24 -11 29 -10 50 15 20 23 23 35
18 66 -5 33 -2 43 25 73 30 35 83 67 110 68 8 0 33 -12 57 -27z m4950 -289
c19 -9 48 -32 65 -52 27 -30 30 -40 25 -73 -5 -31 -2 -43 18 -66 21 -25 26
-26 50 -15 32 14 54 5 103 -41 42 -39 49 -75 28 -137 -21 -62 -10 -80 46 -80
52 0 74 -33 74 -110 0 -63 -7 -77 -123 -233 -67 -91 -101 -117 -149 -117 -76
1 -73 38 16 175 71 109 115 204 108 234 -2 10 -14 -1 -33 -33 -47 -79 -142
-219 -168 -249 -14 -15 -37 -32 -52 -37 -54 -21 -129 26 -140 87 -5 29 2 47
60 142 71 117 146 268 146 296 0 34 -24 6 -79 -90 -32 -55 -76 -129 -99 -165
l-42 -65 0 295 0 295 43 27 c49 32 58 33 103 12z"/>
<path d="M2541 4824 c-110 -29 -231 -117 -247 -178 -10 -41 6 -79 41 -95 26
-13 35 -12 75 3 119 46 182 58 290 53 85 -3 122 -10 195 -35 49 -18 97 -32
108 -32 29 0 67 45 67 80 0 65 -138 173 -264 206 -66 18 -196 17 -265 -2z"/>
<path d="M4183 4821 c-113 -33 -233 -122 -249 -188 -9 -35 13 -75 48 -87 22
-8 49 -2 130 25 94 31 113 34 218 33 100 0 125 -4 190 -28 107 -39 130 -42
163 -16 62 49 20 138 -97 209 -115 69 -273 89 -403 52z"/>
<path d="M2633 4509 c-59 -11 -96 -32 -137 -81 -68 -79 -81 -190 -34 -283 29
-57 56 -84 113 -111 93 -44 201 -26 273 46 48 48 65 87 70 167 4 64 1 79 -23
128 -50 103 -151 154 -262 134z"/>
<path d="M4272 4509 c-64 -12 -131 -65 -165 -129 -26 -50 -28 -62 -25 -130 5
-83 21 -121 70 -170 72 -72 180 -90 273 -46 57 27 84 54 113 111 95 188 -62
402 -266 364z"/>
</g>
</svg>
