<?xml version="1.0" ?><!DOCTYPE svg  PUBLIC '-//W3C//DTD SVG 1.1//EN'  'http://www.w3.org/Graphics/SVG/1.1/DTD/svg11.dtd'><svg enable-background="new 0 0 256 256" id="Layer_1" version="1.1" viewBox="0 0 256 256" xml:space="preserve" xmlns="http://www.w3.org/2000/svg" xmlns:xlink="http://www.w3.org/1999/xlink"><g><path d="M251.7,94.2C276.4,191,191,276.4,94.2,251.7c-44-11.3-78.6-45.9-89.9-89.9C-20.4,65,65-20.4,161.8,4.3   C205.8,15.6,240.4,50.2,251.7,94.2z" fill="#A2A2ED"/><path d="M238.8,108.6c24,88.4-54.6,167.1-143,143c-38.2-10.4-68.2-40.4-78.6-78.6   C-6.8,84.6,71.8,6,160.2,30C198.4,40.4,228.4,70.4,238.8,108.6z" fill="#FFFFFF" opacity="0.15"/><path d="M222.2,130.8c20.3,75.1-46.4,141.8-121.5,121.5c-32.5-8.8-58.1-34.4-66.9-66.9   C13.5,110.4,80.2,43.7,155.3,64C187.8,72.8,213.4,98.4,222.2,130.8z" fill="#FFFFFF" opacity="0.15"/><path d="M247.4,169.1c-0.5,0-1.1,0.1-1.6,0.2c-1.3-2.8-4.1-4.7-7.3-4.7c-2.5,0-4.8,1.2-6.3,3   c-0.9-0.3-1.8-0.5-2.8-0.5c-4.5,0-8.1,3.6-8.1,8.1c0,1.7,0.5,3.4,1.5,4.7c-1.3,1.4-2.1,3.3-2.1,5.4c0,4.5,3.6,8.1,8.1,8.1   c0.3,0,0.5,0,0.8,0c1.1,2.3,3.2,4,5.8,4.5c5.7-8.8,10.4-18.4,13.9-28.5C248.6,169.2,248,169.1,247.4,169.1z" fill="#3C9C46"/><path d="M233.4,180.7c-0.5,0-1.1,0.1-1.6,0.2c-1.3-2.8-4.1-4.7-7.3-4.7c-2.5,0-4.8,1.2-6.3,3   c-0.9-0.3-1.8-0.5-2.8-0.5c-4.5,0-8.1,3.6-8.1,8.1c0,1.7,0.5,3.4,1.5,4.7c-1.3,1.4-2.1,3.3-2.1,5.4c0,4.5,3.6,8.1,8.1,8.1   c0.3,0,0.5,0,0.8,0c1.3,2.7,4.1,4.6,7.3,4.6c2.1,0,4-0.8,5.5-2.1c4.9-6.2,9.3-12.9,13-20C240.7,183.6,237.4,180.7,233.4,180.7z" fill="#3C9C46"/><path d="M244.8,147.1c0.9,1.3,1.4,2.8,1.4,4.5c0,4.5-3.6,8.1-8.1,8.1c-1.1,0-2.1-0.2-3-0.6   c-1.5,1.4-3.5,2.3-5.7,2.3c-3.2,0-6-1.9-7.3-4.6c-0.2,0-0.5,0-0.8,0c-4.5,0-8.1-3.6-8.1-8.1c0-2.1,0.8-4,2.1-5.4   c-0.9-1.3-1.5-2.9-1.5-4.7c0-4.5,3.6-8.1,8.1-8.1c1,0,1.9,0.2,2.8,0.5c1.5-1.8,3.8-3,6.3-3c3.2,0,6,1.9,7.3,4.7   c0.5-0.1,1-0.2,1.6-0.2c4.5,0,8.1,3.6,8.1,8.1C248,143.3,246.8,145.7,244.8,147.1z" fill="#3C9C46"/><path d="M220.4,139.5c0.9,1.3,1.4,2.8,1.4,4.5c0,4.5-3.6,8.1-8.1,8.1c-1.1,0-2.1-0.2-3-0.6   c-1.5,1.4-3.5,2.3-5.7,2.3c-3.2,0-6-1.9-7.3-4.6c-0.2,0-0.5,0-0.8,0c-4.5,0-8.1-3.6-8.1-8.1c0-2.1,0.8-4,2.1-5.4   c-0.9-1.3-1.5-2.9-1.5-4.7c0-4.5,3.6-8.1,8.1-8.1c1,0,1.9,0.2,2.8,0.5c1.5-1.8,3.8-3,6.3-3c3.2,0,6,1.9,7.3,4.7   c0.5-0.1,1-0.2,1.6-0.2c4.5,0,8.1,3.6,8.1,8.1C223.7,135.7,222.4,138.1,220.4,139.5z" fill="#3C9C46"/><path d="M220.4,165.8c0.9,1.3,1.4,2.8,1.4,4.5c0,4.5-3.6,8.1-8.1,8.1c-1.1,0-2.1-0.2-3-0.6   c-1.5,1.4-3.5,2.3-5.7,2.3c-3.2,0-6-1.9-7.3-4.6c-0.2,0-0.5,0-0.8,0c-4.5,0-8.1-3.6-8.1-8.1c0-2.1,0.8-4,2.1-5.4   c-0.9-1.3-1.5-2.9-1.5-4.7c0-4.5,3.6-8.1,8.1-8.1c1,0,1.9,0.2,2.8,0.5c1.5-1.8,3.8-3,6.3-3c3.2,0,6,1.9,7.3,4.7   c0.5-0.1,1-0.2,1.6-0.2c4.5,0,8.1,3.6,8.1,8.1C223.7,162,222.4,164.4,220.4,165.8z" fill="#6DA542"/><path d="M241.3,169.5c0.9,1.3,1.4,2.8,1.4,4.5c0,4.5-3.6,8.1-8.1,8.1c-1.1,0-2.1-0.2-3-0.6   c-1.5,1.4-3.5,2.3-5.7,2.3c-3.2,0-6-1.9-7.3-4.6c-0.2,0-0.5,0-0.8,0c-4.5,0-8.1-3.6-8.1-8.1c0-2.1,0.8-4,2.1-5.4   c-0.9-1.3-1.5-2.9-1.5-4.7c0-4.5,3.6-8.1,8.1-8.1c1,0,1.9,0.2,2.8,0.5c1.5-1.8,3.8-3,6.3-3c3.2,0,6,1.9,7.3,4.7   c0.5-0.1,1-0.2,1.6-0.2c4.5,0,8.1,3.6,8.1,8.1C244.5,165.6,243.2,168,241.3,169.5z" fill="#3C9C46"/><path d="M250.4,140.4c-2.5,0-4.8,1.2-6.3,3c-0.9-0.3-1.8-0.5-2.8-0.5c-4.5,0-8.1,3.6-8.1,8.1c0,1.7,0.5,3.4,1.5,4.7   c-1.3,1.4-2.1,3.3-2.1,5.4c0,4.5,3.6,8.1,8.1,8.1c0.3,0,0.5,0,0.8,0c1.1,2.4,3.4,4.2,6.1,4.6c3.8-10,6.4-20.6,7.6-31.7   C253.9,141,252.2,140.4,250.4,140.4z" fill="#3C9C46"/><path d="M34.8,175.2c0-4.5-3.6-8.1-8.1-8.1c-1,0-1.9,0.2-2.8,0.5c-1.5-1.8-3.8-3-6.3-3c-3.2,0-6,1.9-7.3,4.7   c-0.5-0.1-1-0.2-1.6-0.2c-0.6,0-1.2,0.1-1.8,0.2c3.5,10.1,8.1,19.7,13.9,28.5c2.6-0.5,4.7-2.2,5.8-4.5c0.2,0,0.5,0,0.8,0   c4.5,0,8.1-3.6,8.1-8.1c0-2.1-0.8-4-2.1-5.4C34.2,178.5,34.8,176.9,34.8,175.2z" fill="#3C9C46"/><path d="M48.7,186.8c0-4.5-3.6-8.1-8.1-8.1c-1,0-1.9,0.2-2.8,0.5c-1.5-1.8-3.8-3-6.3-3c-3.2,0-6,1.9-7.3,4.7   c-0.5-0.1-1-0.2-1.6-0.2c-4,0-7.3,2.9-8,6.7c3.7,7.1,8.1,13.8,13,20c1.4,1.3,3.4,2.1,5.5,2.1c3.2,0,6-1.9,7.3-4.6   c0.2,0,0.5,0,0.8,0c4.5,0,8.1-3.6,8.1-8.1c0-2.1-0.8-4-2.1-5.4C48.2,190.2,48.7,188.6,48.7,186.8z" fill="#3C9C46"/><path d="M11.2,147.1c-0.9,1.3-1.4,2.8-1.4,4.5c0,4.5,3.6,8.1,8.1,8.1c1.1,0,2.1-0.2,3-0.6c1.5,1.4,3.5,2.3,5.7,2.3   c3.2,0,6-1.9,7.3-4.6c0.2,0,0.5,0,0.8,0c4.5,0,8.1-3.6,8.1-8.1c0-2.1-0.8-4-2.1-5.4c0.9-1.3,1.5-2.9,1.5-4.7c0-4.5-3.6-8.1-8.1-8.1   c-1,0-1.9,0.2-2.8,0.5c-1.5-1.8-3.8-3-6.3-3c-3.2,0-6,1.9-7.3,4.7c-0.5-0.1-1-0.2-1.6-0.2c-4.5,0-8.1,3.6-8.1,8.1   C8,143.3,9.2,145.7,11.2,147.1z" fill="#3C9C46"/><path d="M35.6,139.5c-0.9,1.3-1.4,2.8-1.4,4.5c0,4.5,3.6,8.1,8.1,8.1c1.1,0,2.1-0.2,3-0.6c1.5,1.4,3.5,2.3,5.7,2.3   c3.2,0,6-1.9,7.3-4.6c0.2,0,0.5,0,0.8,0c4.5,0,8.1-3.6,8.1-8.1c0-2.1-0.8-4-2.1-5.4c0.9-1.3,1.5-2.9,1.5-4.7c0-4.5-3.6-8.1-8.1-8.1   c-1,0-1.9,0.2-2.8,0.5c-1.5-1.8-3.8-3-6.3-3c-3.2,0-6,1.9-7.3,4.7c-0.5-0.1-1-0.2-1.6-0.2c-4.5,0-8.1,3.6-8.1,8.1   C32.3,135.7,33.6,138.1,35.6,139.5z" fill="#3C9C46"/><path d="M35.6,165.8c-0.9,1.3-1.4,2.8-1.4,4.5c0,4.5,3.6,8.1,8.1,8.1c1.1,0,2.1-0.2,3-0.6c1.5,1.4,3.5,2.3,5.7,2.3   c3.2,0,6-1.9,7.3-4.6c0.2,0,0.5,0,0.8,0c4.5,0,8.1-3.6,8.1-8.1c0-2.1-0.8-4-2.1-5.4c0.9-1.3,1.5-2.9,1.5-4.7c0-4.5-3.6-8.1-8.1-8.1   c-1,0-1.9,0.2-2.8,0.5c-1.5-1.8-3.8-3-6.3-3c-3.2,0-6,1.9-7.3,4.7c-0.5-0.1-1-0.2-1.6-0.2c-4.5,0-8.1,3.6-8.1,8.1   C32.3,162,33.6,164.4,35.6,165.8z" fill="#6DA542"/><path d="M14.7,169.5c-0.9,1.3-1.4,2.8-1.4,4.5c0,4.5,3.6,8.1,8.1,8.1c1.1,0,2.1-0.2,3-0.6c1.5,1.4,3.5,2.3,5.7,2.3   c3.2,0,6-1.9,7.3-4.6c0.2,0,0.5,0,0.8,0c4.5,0,8.1-3.6,8.1-8.1c0-2.1-0.8-4-2.1-5.4c0.9-1.3,1.5-2.9,1.5-4.7c0-4.5-3.6-8.1-8.1-8.1   c-1,0-1.9,0.2-2.8,0.5c-1.5-1.8-3.8-3-6.3-3c-3.2,0-6,1.9-7.3,4.7c-0.5-0.1-1-0.2-1.6-0.2c-4.5,0-8.1,3.6-8.1,8.1   C11.5,165.6,12.8,168,14.7,169.5z" fill="#3C9C46"/><path d="M22.8,151c0-4.5-3.6-8.1-8.1-8.1c-1,0-1.9,0.2-2.8,0.5c-1.5-1.8-3.8-3-6.3-3c-1.8,0-3.5,0.6-4.8,1.6   c1.2,11,3.8,21.7,7.6,31.7c2.7-0.4,5-2.2,6.1-4.6c0.2,0,0.5,0,0.8,0c4.5,0,8.1-3.6,8.1-8.1c0-2.1-0.8-4-2.1-5.4   C22.3,154.4,22.8,152.7,22.8,151z" fill="#3C9C46"/><path d="M21.1,198.4C44,233.1,83.3,256,128,256c44.7,0,84-22.9,106.9-57.6H21.1z" fill="#D8BE9C"/><g><rect fill="#E5A25E" height="59.1" width="44.3" x="23.2" y="136.9"/><rect fill="#A46938" height="4.1" width="48" x="19.5" y="134.6"/><g><rect fill="#A46938" height="47.5" width="4.6" x="27.7" y="142.5"/><rect fill="#A46938" height="47.5" width="4.6" x="37.3" y="142.5"/><rect fill="#A46938" height="47.5" width="4.6" x="46.9" y="142.5"/><rect fill="#A46938" height="47.5" width="4.6" x="56.5" y="142.5"/></g></g><g><rect fill="#E5A25E" height="59.1" width="44.3" x="177.6" y="136.9"/><rect fill="#A46938" height="4.1" width="48" x="177.6" y="134.6"/><g><rect fill="#A46938" height="47.5" width="4.6" x="212.9" y="142.5"/><rect fill="#A46938" height="47.5" width="4.6" x="203.3" y="142.5"/><rect fill="#A46938" height="47.5" width="4.6" x="193.7" y="142.5"/><rect fill="#A46938" height="47.5" width="4.6" x="184.1" y="142.5"/></g></g><g><g><path d="M190.5,177.6c0.6-9.2,0.9-19.1,0.9-29.5c0-47.1-6.2-85.3-14-85.3c-7.7,0-14,38.2-14,85.3     c0,10.4,0.3,20.3,0.9,29.5H190.5z" fill="#EDB16B"/><path d="M177.5,62.8v114.8h13.1c0.6-9.2,0.9-19.1,0.9-29.5C191.4,101.1,185.2,63,177.5,62.8z" fill="#E5A25E"/></g><path d="M188.5,95.9c-2.6-20.1-6.5-33-11-33c-4.5,0-8.5,12.9-11,33H188.5z" fill="#7C6B7B"/><path d="M188.5,95.9c-2.5-20-6.5-32.9-11-33v33H188.5z" fill="#6A5868"/><path d="M183,55.2c1.5,4.7-2.8,9-7.5,7.5c-1.7-0.5-3-1.9-3.6-3.6c-1.5-4.7,2.8-9,7.5-7.5    C181.1,52.1,182.5,53.5,183,55.2z" fill="#7C6B7B"/><path d="M177.5,51.3V63c3.2,0,5.9-2.6,5.9-5.9C183.3,53.9,180.7,51.3,177.5,51.3z" fill="#6A5868"/></g><g><path d="M135.9,138.7c0.3-5.5,0.5-11.5,0.5-17.7c0-28.3-3.7-51.2-8.4-51.2c-4.6,0-8.4,22.9-8.4,51.2    c0,6.2,0.2,12.2,0.5,17.7H135.9z" fill="#7C6B7B"/><path d="M128.1,69.9v68.8h7.8c0.3-5.5,0.5-11.5,0.5-17.7C136.4,92.9,132.7,70,128.1,69.9z" fill="#6A5868"/><path d="M134.6,89.7c-1.5-12.1-3.9-19.8-6.6-19.8c-2.7,0-5.1,7.8-6.6,19.8H134.6z" fill="#7C6B7B"/><path d="M134.6,89.7c-1.5-12-3.9-19.8-6.6-19.8v19.8H134.6z" fill="#6A5868"/><path d="M131.4,65.3c0.9,2.8-1.7,5.4-4.5,4.5c-1-0.3-1.8-1.1-2.1-2.1c-0.9-2.8,1.7-5.4,4.5-4.5    C130.2,63.5,131,64.3,131.4,65.3z" fill="#7C6B7B"/><path d="M128.1,63v7c1.9,0,3.5-1.6,3.5-3.5C131.6,64.6,130,63,128.1,63z" fill="#6A5868"/></g><g><path d="M162.6,177.6c0.6-11.2,0.9-23.4,0.9-36c0-57.6-6.2-104.2-14-104.2c-7.7,0-14,46.7-14,104.2    c0,12.7,0.3,24.8,0.9,36H162.6z" fill="#EDB16B"/><path d="M149.6,37.3v140.2h13.1c0.6-11.2,0.9-23.4,0.9-36C163.5,84.1,157.3,37.5,149.6,37.3z" fill="#E5A25E"/></g><path d="M160.4,76.6c-2.6-23.9-6.5-39.3-10.9-39.3c-4.4,0-8.4,15.3-10.9,39.3H160.4z" fill="#7C6B7B"/><path d="M160.4,76.6c-2.5-23.9-6.5-39.2-10.9-39.3v39.3H160.4z" fill="#6A5868"/><g><g><g><path d="M65.5,177.6c-0.6-9.2-0.9-19.1-0.9-29.5c0-47.1,6.2-85.3,14-85.3s14,38.2,14,85.3      c0,10.4-0.3,20.3-0.9,29.5H65.5z" fill="#E5A25E"/></g><g><path d="M78.5,62.8v114.8H65.5c-0.6-9.2-0.9-19.1-0.9-29.5C64.6,101.1,70.8,63,78.5,62.8z" fill="#EDB16B"/></g></g></g><path d="M67.5,95.9c2.6-20.1,6.5-33,11-33c4.5,0,8.5,12.9,11,33H67.5z" fill="#7C6B7B"/><path d="M67.5,95.9c2.5-20,6.5-32.9,11-33v33H67.5z" fill="#6A5868"/><path d="M93.4,177.6c-0.6-11.2-0.9-23.4-0.9-36c0-57.6,6.2-104.2,14-104.2s14,46.7,14,104.2c0,12.7-0.3,24.8-0.9,36   H93.4z" fill="#E5A25E"/><path d="M106.4,37.3v140.2H93.4c-0.6-11.2-0.9-23.4-0.9-36C92.5,84.1,98.7,37.5,106.4,37.3z" fill="#EDB16B"/><path d="M95.6,76.6c2.6-23.9,6.5-39.3,10.9-39.3c4.4,0,8.4,15.3,10.9,39.3H95.6z" fill="#7C6B7B"/><path d="M95.6,76.6c2.5-23.9,6.5-39.2,10.9-39.3v39.3H95.6z" fill="#6A5868"/><path d="M232.9,201.4c1.2-1.8,2.5-3.6,3.6-5.4H19.5c1.2,1.8,2.4,3.6,3.6,5.4H232.9z" fill="#A46938"/><polygon fill="#D0AC7E" points="133.9,138.6 128,135.2 122.1,138.6  "/><g><path d="M84,55.2c1.5,4.7-2.8,9-7.5,7.5c-1.7-0.5-3-1.9-3.6-3.6c-1.5-4.7,2.8-9,7.5-7.5    C82.1,52.1,83.5,53.5,84,55.2z" fill="#7C6B7B"/><path d="M78.5,51.3V63c3.2,0,5.9-2.6,5.9-5.9C84.4,53.9,81.7,51.3,78.5,51.3z" fill="#6A5868"/></g><g><path d="M155.2,29.5c1.5,4.7-2.8,9-7.5,7.5c-1.7-0.5-3-1.9-3.6-3.6c-1.5-4.7,2.8-9,7.5-7.5    C153.3,26.5,154.7,27.9,155.2,29.5z" fill="#7C6B7B"/><path d="M149.7,25.6v11.7c3.2,0,5.9-2.6,5.9-5.9C155.5,28.3,152.9,25.6,149.7,25.6z" fill="#6A5868"/></g><g><path d="M111.9,29.5c1.5,4.7-2.8,9-7.5,7.5c-1.7-0.5-3-1.9-3.6-3.6c-1.5-4.7,2.8-9,7.5-7.5    C110,26.5,111.3,27.9,111.9,29.5z" fill="#7C6B7B"/><path d="M106.3,25.6v11.7c3.2,0,5.9-2.6,5.9-5.9C112.2,28.3,109.6,25.6,106.3,25.6z" fill="#6A5868"/></g><g><path d="M170.2,112.5L170.2,112.5c-1.1,0-2,0.9-2,2v9.4c0,1.1,0.9,2,2,2l0,0c1.1,0,2-0.9,2-2v-9.4    C172.2,113.4,171.3,112.5,170.2,112.5z" fill="#A46938"/><path d="M177.5,112.5L177.5,112.5c-1.1,0-2,0.9-2,2v9.4c0,1.1,0.9,2,2,2l0,0c1.1,0,2-0.9,2-2v-9.4    C179.5,113.4,178.6,112.5,177.5,112.5z" fill="#A46938"/><path d="M184.8,112.5L184.8,112.5c-1.1,0-2,0.9-2,2v9.4c0,1.1,0.9,2,2,2l0,0c1.1,0,2-0.9,2-2v-9.4    C186.7,113.4,185.8,112.5,184.8,112.5z" fill="#A46938"/></g><g><path d="M142.2,93.7L142.2,93.7c-1.1,0-2,0.9-2,2v9.6c0,1.1,0.9,2,2,2l0,0c1.1,0,2-0.9,2-2v-9.6    C144.3,94.6,143.4,93.7,142.2,93.7z" fill="#A46938"/><path d="M149.7,93.7L149.7,93.7c-1.1,0-2,0.9-2,2v9.6c0,1.1,0.9,2,2,2l0,0c1.1,0,2-0.9,2-2v-9.6    C151.7,94.6,150.8,93.7,149.7,93.7z" fill="#A46938"/><path d="M157.1,93.7L157.1,93.7c-1.1,0-2,0.9-2,2v9.6c0,1.1,0.9,2,2,2l0,0c1.1,0,2-0.9,2-2v-9.6    C159.1,94.6,158.2,93.7,157.1,93.7z" fill="#A46938"/></g><g><g><g><path d="M86,112.5L86,112.5c1.1,0,2,0.9,2,2v9.4c0,1.1-0.9,2-2,2l0,0c-1.1,0-2-0.9-2-2v-9.4      C84,113.4,84.9,112.5,86,112.5z" fill="#A46938"/><path d="M78.7,112.5L78.7,112.5c1.1,0,2,0.9,2,2v9.4c0,1.1-0.9,2-2,2l0,0c-1.1,0-2-0.9-2-2v-9.4      C76.7,113.4,77.6,112.5,78.7,112.5z" fill="#A46938"/><path d="M71.5,112.5L71.5,112.5c1.1,0,2,0.9,2,2v9.4c0,1.1-0.9,2-2,2l0,0c-1.1,0-2-0.9-2-2v-9.4      C69.5,113.4,70.4,112.5,71.5,112.5z" fill="#A46938"/></g><g><path d="M114,93.7L114,93.7c1.1,0,2,0.9,2,2v9.6c0,1.1-0.9,2-2,2l0,0c-1.1,0-2-0.9-2-2v-9.6      C111.9,94.6,112.8,93.7,114,93.7z" fill="#A46938"/><path d="M106.5,93.7L106.5,93.7c1.1,0,2,0.9,2,2v9.6c0,1.1-0.9,2-2,2l0,0c-1.1,0-2-0.9-2-2v-9.6      C104.5,94.6,105.4,93.7,106.5,93.7z" fill="#A46938"/><path d="M99.1,93.7L99.1,93.7c1.1,0,2,0.9,2,2v9.6c0,1.1-0.9,2-2,2l0,0c-1.1,0-2-0.9-2-2v-9.6      C97.1,94.6,98,93.7,99.1,93.7z" fill="#A46938"/></g></g></g><g><g><path d="M81.8,227.4H69.3c-1.8,0-3.2,1.4-3.2,3.2c0,1.8,1.4,3.2,3.2,3.2h12.5c1.8,0,3.2-1.4,3.2-3.2     C85,228.8,83.6,227.4,81.8,227.4z" fill="#CEA67A"/><g><path d="M91,227.4h-0.3c-1.8,0-3.2,1.4-3.2,3.2c0,1.8,1.4,3.2,3.2,3.2H91c1.8,0,3.2-1.4,3.2-3.2      C94.2,228.8,92.7,227.4,91,227.4z" fill="#CEA67A"/></g><g><g><path d="M75.8,213.9H33.1c2.6,2.9,5.4,5.7,8.3,8.4h34.4c2.3,0,4.2-1.9,4.2-4.2C80,215.8,78.1,213.9,75.8,213.9z       " fill="#CEA67A"/><g><path d="M112.4,240.8H67.5c6.1,3.3,12.6,6.1,19.2,8.4h25.7c2.3,0,4.2-1.9,4.2-4.2l0,0        C116.6,242.7,114.7,240.8,112.4,240.8z" fill="#CEA67A"/><path d="M137.9,244c-2.3,0-4.2,1.9-4.2,4.2c0,2.3,1.9,4.2,4.2,4.2h20.2c8.3-2,16.4-4.8,24-8.4H137.9z" fill="#CEA67A"/><path d="M171.2,236.9h-16.4c-2.3,0-4.2-1.9-4.2-4.2l0,0c0-2.3,1.9-4.2,4.2-4.2h16.4c2.3,0,4.2,1.9,4.2,4.2l0,0        C175.4,235,173.5,236.9,171.2,236.9z" fill="#CEA67A"/><path d="M183.1,236.9h-0.4c-2.3,0-4.2-1.9-4.2-4.2l0,0c0-2.3,1.9-4.2,4.2-4.2h0.4c2.3,0,4.2,1.9,4.2,4.2l0,0        C187.3,235,185.5,236.9,183.1,236.9z" fill="#CEA67A"/><path d="M200.1,224.2c-1.8,0-3.2,1.4-3.2,3.2c0,1.8,1.4,3.2,3.2,3.2h4.4c2.7-2,5.4-4.2,7.9-6.4H200.1z" fill="#CEA67A"/><path d="M137.9,231.8h-29.9c-2.3,0-4.2-1.9-4.2-4.2l0,0c0-2.3,1.9-4.2,4.2-4.2h29.9c2.3,0,4.2,1.9,4.2,4.2l0,0        C142,230,140.2,231.8,137.9,231.8z" fill="#CEA67A"/><path d="M225.9,210.5h-19.5c-2.3,0-4.2,1.9-4.2,4.2c0,2.3,1.9,4.2,4.2,4.2h11.8        C220.8,216.2,223.4,213.4,225.9,210.5z" fill="#CEA67A"/><path d="M108.8,213.9H88.9c-0.9,0-1.7,0.7-1.7,1.7s0.7,1.7,1.7,1.7h19.9c0.9,0,1.7-0.7,1.7-1.7        S109.7,213.9,108.8,213.9z" fill="#CEA67A"/><path d="M172.8,217.2h-19.9c-0.9,0-1.7,0.7-1.7,1.7c0,0.9,0.7,1.7,1.7,1.7h19.9c0.9,0,1.7-0.7,1.7-1.7        C174.4,218,173.7,217.2,172.8,217.2z" fill="#CEA67A"/><path d="M181.5,217.2h-3c-0.9,0-1.7,0.7-1.7,1.7c0,0.9,0.7,1.7,1.7,1.7h3c0.9,0,1.7-0.7,1.7-1.7        C183.1,218,182.4,217.2,181.5,217.2z" fill="#CEA67A"/></g></g></g></g></g><line opacity="0.15" x1="65.2" x2="191.4" y1="171.6" y2="171.6"/><polygon opacity="0.15" points="128,123.5 154.4,149.9 128,149.9  "/><polygon opacity="0.15" points="165.6,142.5 219.2,196 176.1,196  "/><g><polygon fill="#6A5868" points="191.1,196 191.1,171.7 128,132.4 64.9,171.7 64.9,196   "/><g><g><polygon fill="#EDB16B" points="128,123.4 106.3,164.7 106.3,196 128,196 149.7,196 149.7,164.7     "/><polygon fill="#E5A25E" points="128,123.5 128,196 149.7,196 149.7,164.8     "/><path d="M128.1,159.2L128.1,159.2c-4.2,0-7.5,3.4-7.5,7.5V196h15v-29.3C135.6,162.5,132.2,159.2,128.1,159.2z" fill="#A46938"/></g><g><polygon fill="#EDB16B" points="165.6,142.5 149.7,165.3 149.7,196 165.6,196 181.6,196 181.6,165.3     "/><polygon fill="#E5A25E" points="165.6,142.5 165.6,142.5 165.6,196 181.6,196 181.6,165.3     "/><path d="M165.6,170.5c-2.9,0-5.2,2.3-5.2,5.2V196h10.4v-20.3C170.9,172.8,168.5,170.5,165.6,170.5z" fill="#A46938"/></g><g><polygon fill="#EDB16B" points="90.4,142.5 74.4,165.3 74.4,196 90.4,196 106.3,196 106.3,165.3     "/><polygon fill="#E5A25E" points="90.4,142.5 90.3,142.5 90.3,196 106.3,196 106.3,165.3     "/><path d="M90.3,170.5L90.3,170.5c-2.9,0-5.2,2.3-5.2,5.2V196h10.4v-20.3C95.6,172.8,93.2,170.5,90.3,170.5z" fill="#A46938"/></g></g></g><g><path d="M247.1,145.2c0.8,1.9-1,3.7-2.9,2.9c-0.5-0.2-0.9-0.6-1.1-1.1c-0.8-1.9,1-3.7,3-2.9    C246.5,144.3,246.9,144.7,247.1,145.2z" fill="#1C8040"/><path d="M232.5,143.4c0.4,1.5-0.9,2.7-2.4,2.4c-0.7-0.2-1.2-0.7-1.4-1.4c-0.4-1.5,0.9-2.7,2.4-2.4    C231.8,142.2,232.4,142.7,232.5,143.4z" fill="#1C8040"/><path d="M240.8,159.6c0.4,1.5-0.9,2.7-2.4,2.4c-0.7-0.2-1.2-0.7-1.4-1.4c-0.4-1.5,0.9-2.7,2.4-2.4    C240,158.4,240.6,158.9,240.8,159.6z" fill="#1C8040"/><path d="M229.7,175.2c0.4,1.5-0.9,2.7-2.4,2.4c-0.7-0.2-1.2-0.7-1.4-1.4c-0.4-1.5,0.9-2.7,2.4-2.4    C229,173.9,229.6,174.5,229.7,175.2z" fill="#1C8040"/><path d="M207,129.6c0.4,1.2-0.7,2.3-1.9,1.9c-0.4-0.1-0.8-0.5-0.9-0.9c-0.4-1.2,0.7-2.3,1.9-1.9    C206.5,128.8,206.8,129.1,207,129.6z" fill="#1C8040"/></g><path d="M4.9,145.2c-0.8,1.9,1,3.7,3,2.9c0.5-0.2,0.9-0.6,1.1-1.1c0.8-1.9-1-3.7-2.9-2.9   C5.5,144.3,5.1,144.7,4.9,145.2z" fill="#1C8040"/><path d="M19.4,143.4c-0.4,1.5,0.9,2.7,2.4,2.4c0.7-0.2,1.2-0.7,1.4-1.4c0.4-1.5-0.9-2.7-2.4-2.4   C20.1,142.2,19.6,142.7,19.4,143.4z" fill="#1C8040"/><path d="M11.2,159.6c-0.4,1.5,0.9,2.7,2.4,2.4c0.7-0.2,1.2-0.7,1.4-1.4c0.4-1.5-0.9-2.7-2.4-2.4   C11.9,158.4,11.3,158.9,11.2,159.6z" fill="#1C8040"/><path d="M12.7,171.9c-0.4,1.5,0.9,2.7,2.4,2.4c0.7-0.2,1.2-0.7,1.4-1.4c0.4-1.5-0.9-2.7-2.4-2.4   C13.5,170.7,12.9,171.2,12.7,171.9z" fill="#1C8040"/><path d="M45,129.6c-0.4,1.2,0.7,2.3,1.9,1.9c0.4-0.1,0.8-0.5,0.9-0.9c0.4-1.2-0.7-2.3-1.9-1.9   C45.5,128.8,45.1,129.1,45,129.6z" fill="#1C8040"/><g><path d="M162,157.2L162,157.2c-0.5,0-1,0.4-1,1v4.7c0,0.5,0.4,1,1,1l0,0c0.5,0,1-0.4,1-1v-4.7    C163,157.6,162.6,157.2,162,157.2z" fill="#A46938"/><path d="M165.6,157.2L165.6,157.2c-0.5,0-1,0.4-1,1v4.7c0,0.5,0.4,1,1,1l0,0c0.5,0,1-0.4,1-1v-4.7    C166.6,157.6,166.2,157.2,165.6,157.2z" fill="#A46938"/><path d="M169.3,157.2L169.3,157.2c-0.5,0-1,0.4-1,1v4.7c0,0.5,0.4,1,1,1l0,0c0.5,0,1-0.4,1-1v-4.7    C170.3,157.6,169.8,157.2,169.3,157.2z" fill="#A46938"/></g><g><path d="M86.7,157.2L86.7,157.2c-0.5,0-1,0.4-1,1v4.7c0,0.5,0.4,1,1,1l0,0c0.5,0,1-0.4,1-1v-4.7    C87.7,157.6,87.3,157.2,86.7,157.2z" fill="#A46938"/><path d="M90.3,157.2L90.3,157.2c-0.5,0-1,0.4-1,1v4.7c0,0.5,0.4,1,1,1l0,0c0.5,0,1-0.4,1-1v-4.7    C91.3,157.6,90.9,157.2,90.3,157.2z" fill="#A46938"/><path d="M94,157.2L94,157.2c-0.5,0-1,0.4-1,1v4.7c0,0.5,0.4,1,1,1l0,0c0.5,0,1-0.4,1-1v-4.7    C95,157.6,94.5,157.2,94,157.2z" fill="#A46938"/></g><g><path d="M123.2,143.9L123.2,143.9c-0.7,0-1.3,0.6-1.3,1.3v6.2c0,0.7,0.6,1.3,1.3,1.3l0,0c0.7,0,1.3-0.6,1.3-1.3    v-6.2C124.5,144.5,124,143.9,123.2,143.9z" fill="#A46938"/><path d="M128,143.9L128,143.9c-0.7,0-1.3,0.6-1.3,1.3v6.2c0,0.7,0.6,1.3,1.3,1.3l0,0c0.7,0,1.3-0.6,1.3-1.3v-6.2    C129.3,144.5,128.7,143.9,128,143.9z" fill="#A46938"/><path d="M132.8,143.9L132.8,143.9c-0.7,0-1.3,0.6-1.3,1.3v6.2c0,0.7,0.6,1.3,1.3,1.3l0,0c0.7,0,1.3-0.6,1.3-1.3    v-6.2C134.1,144.5,133.5,143.9,132.8,143.9z" fill="#A46938"/></g><path d="M58.6,127.5c0.5,1.1-0.5,2.1-1.6,1.6c-0.2-0.1-0.3-0.2-0.4-0.4c-0.5-1.1,0.5-2.1,1.6-1.6   C58.4,127.2,58.5,127.3,58.6,127.5z" fill="#1C8040"/><path d="M25.4,131c0.5,1.1-0.5,2.1-1.6,1.6c-0.2-0.1-0.3-0.2-0.4-0.4c-0.5-1.1,0.5-2.1,1.6-1.6   C25.1,130.7,25.3,130.8,25.4,131z" fill="#1C8040"/><path d="M16,150.4c0.5,1.1-0.5,2.1-1.6,1.6c-0.2-0.1-0.3-0.2-0.4-0.4c-0.5-1.1,0.5-2.1,1.6-1.6   C15.8,150.1,15.9,150.2,16,150.4z" fill="#1C8040"/><path d="M14.9,139.8c0.5,1.1-0.5,2.1-1.6,1.6c-0.2-0.1-0.3-0.2-0.4-0.4c-0.5-1.1,0.5-2.1,1.6-1.6   C14.6,139.5,14.8,139.6,14.9,139.8z" fill="#1C8040"/><path d="M20.3,164.8c0.5,1.1-0.5,2.1-1.6,1.6c-0.2-0.1-0.3-0.2-0.4-0.4c-0.5-1.1,0.5-2.1,1.6-1.6   C20.1,164.4,20.2,164.6,20.3,164.8z" fill="#1C8040"/><path d="M19.2,186.2c0.5,1.1-0.5,2.1-1.6,1.6c-0.2-0.1-0.3-0.2-0.4-0.4c-0.5-1.1,0.5-2.1,1.6-1.6   C19,185.8,19.1,186,19.2,186.2z" fill="#1C8040"/><path d="M228.8,158.6c0.5,1.1-0.5,2.1-1.6,1.6c-0.2-0.1-0.3-0.2-0.4-0.4c-0.5-1.1,0.5-2.1,1.6-1.6   C228.6,158.3,228.7,158.4,228.8,158.6z" fill="#1C8040"/><path d="M241.2,172.1c0.5,1.1-0.5,2.1-1.6,1.6c-0.2-0.1-0.3-0.2-0.4-0.4c-0.5-1.1,0.5-2.1,1.6-1.6   C241,171.8,241.1,171.9,241.2,172.1z" fill="#1C8040"/><path d="M232.6,186.2c0.5,1.1-0.5,2.1-1.6,1.6c-0.2-0.1-0.3-0.2-0.4-0.4c-0.5-1.1,0.5-2.1,1.6-1.6   C232.4,185.9,232.5,186,232.6,186.2z" fill="#1C8040"/></g></svg>