<?xml version="1.0" ?><!DOCTYPE svg  PUBLIC '-//W3C//DTD SVG 1.1//EN'  'http://www.w3.org/Graphics/SVG/1.1/DTD/svg11.dtd'><svg enable-background="new 0 0 256 256" id="Layer_1" version="1.1" viewBox="0 0 256 256" xml:space="preserve" xmlns="http://www.w3.org/2000/svg" xmlns:xlink="http://www.w3.org/1999/xlink"><g><circle cx="128" cy="128" fill="#8787DD" id="XMLID_2151_" r="128"/><g id="XMLID_307_"><path d="M232.4,91.2c0,1.1-0.9,2.1-2.1,2.1h-23.8c-1.1,0-2.1-0.9-2.1-2.1c0-1.2,0.9-2.1,2.1-2.1    h3.4c1.1,0,2.1-0.9,2.1-2.1c0-1.1-0.9-2.1-2.1-2.1h-7.2c-1.1,0-2.1-0.9-2.1-2.1c0-1.1,0.9-2.1,2.1-2.1h21c1.1,0,2.1,0.9,2.1,2.1    c0,1.1-0.9,2.1-2.1,2.1l-6.3,0c-1.1,0-2.1,0.9-2.1,2.1c0,0.6,0.2,1.1,0.6,1.5c0.4,0.4,0.9,0.6,1.5,0.6h13.3    C231.6,89.3,232.4,90.2,232.4,91.2z" fill="#A2A2ED" id="XMLID_2030_"/><path d="M233.4,80.8h-3.3c-1.1,0-2.1,0.8-2.2,1.9c-0.1,1.2,0.9,2.3,2.1,2.3h3.4    c1.2,0,2.1-0.9,2.1-2.1l0,0C235.5,81.7,234.6,80.8,233.4,80.8z" fill="#A2A2ED" id="XMLID_2025_"/></g><g id="XMLID_2024_"><path d="M96.5,40.4c0,1-0.8,1.7-1.7,1.7h-20c-1,0-1.7-0.8-1.7-1.7c0-1,0.8-1.7,1.7-1.7h2.8    c1,0,1.7-0.8,1.7-1.7c0-1-0.8-1.7-1.7-1.7h-6c-1,0-1.7-0.8-1.7-1.7c0-1,0.8-1.7,1.7-1.7h17.6c1,0,1.7,0.8,1.7,1.7    c0,1-0.8,1.7-1.7,1.7l-5.3,0c-1,0-1.7,0.8-1.7,1.7c0,0.5,0.2,0.9,0.5,1.2c0.3,0.3,0.8,0.5,1.2,0.5H95    C95.9,38.8,96.5,39.6,96.5,40.4z" fill="#A2A2ED" id="XMLID_2037_"/><path d="M97.4,31.7h-2.8c-0.9,0-1.7,0.7-1.8,1.6c-0.1,1,0.7,1.9,1.7,1.9h2.9c1,0,1.7-0.8,1.7-1.7    v0C99.1,32.5,98.3,31.7,97.4,31.7z" fill="#A2A2ED" id="XMLID_2035_"/></g><g id="XMLID_512_"><path d="M51.6,81c0,0.9-0.7,1.7-1.7,1.7H30.8c-0.9,0-1.7-0.7-1.7-1.7c0-0.9,0.7-1.7,1.7-1.7h2.7    c0.9,0,1.7-0.7,1.7-1.7c0-0.9-0.7-1.7-1.7-1.7h-5.8c-0.9,0-1.7-0.7-1.7-1.7s0.7-1.7,1.7-1.7h16.8c0.9,0,1.7,0.7,1.7,1.7    s-0.7,1.7-1.7,1.7l-5.1,0c-0.9,0-1.7,0.7-1.7,1.7c0,0.5,0.2,0.9,0.5,1.2c0.3,0.3,0.7,0.5,1.2,0.5h10.6C51,79.4,51.6,80.1,51.6,81z    " fill="#A2A2ED" id="XMLID_2023_"/><path d="M52.4,72.6h-2.7c-0.9,0-1.6,0.6-1.7,1.5c-0.1,1,0.7,1.8,1.7,1.8h2.8    c0.9,0,1.7-0.7,1.7-1.7l0,0C54.1,73.4,53.3,72.6,52.4,72.6z" fill="#A2A2ED" id="XMLID_1948_"/></g><path d="M21.4,198.8C44.3,233.3,83.5,256,128,256c44.5,0,83.7-22.7,106.6-57.2H21.4z" fill="#295D82" id="XMLID_2125_"/><path d="M254.8,145.6h-4.6v-21.8h-4.8l-7.8-7.8l-9.8,9.8v55h-10v-48.1h-22.5v25.9H188V104h-26.9   v65.9h-14.1v-44.4h-23.7v13.1h-2.2v19.7H96.8V129H79.6v11.2h-5.9v5.4h-7.8v7.4H45.5v10h-9.4v-57.5h-30v60.3l-0.5,0   c5,16.2,13.1,30.9,23.6,43.7h197.3C241.4,191.7,251.5,169.7,254.8,145.6z" fill="#6767BA" id="XMLID_1947_"/><path d="M27.7,207.5C51.1,237,87.3,256,128,256c40.7,0,76.9-19,100.3-48.5H27.7z" fill="#46558A" id="XMLID_4510_"/><path d="M27.7,207.5C51.1,237,87.3,256,128,256c40.7,0,76.9-19,100.3-48.5H27.7z" fill="#4CA6D3" id="XMLID_4511_"/><path d="M207.3,210c-3.5,3.9-8.6,6.4-14.2,6.4c-5.7,0-10.7-2.5-14.2-6.4   c-3.5,3.9-8.6,6.4-14.2,6.4c-5.7,0-10.7-2.5-14.2-6.4c-3.5,3.9-8.6,6.4-14.2,6.4c-5.7,0-10.7-2.5-14.2-6.4   c-3.5,3.9-8.6,6.4-14.2,6.4c-5.7,0-10.7-2.5-14.2-6.4c-3.5,3.9-8.6,6.4-14.2,6.4c-5.7,0-10.7-2.5-14.2-6.4   c-3.5,3.9-8.6,6.4-14.2,6.4c-5.7,0-10.7-2.5-14.2-6.4c-1.2,1.3-2.5,2.5-4,3.4C56.1,239.5,90.1,256,128,256   c36.4,0,69.3-15.2,92.6-39.7C215.3,216.1,210.6,213.7,207.3,210z" fill="#4295D2" id="XMLID_4512_"/><path d="M212.8,223.9c-2.1-1.1-3.9-2.5-5.5-4.3c-3.5,3.9-8.6,6.4-14.2,6.4   c-5.7,0-10.7-2.5-14.2-6.4c-3.5,3.9-8.6,6.4-14.2,6.4c-5.7,0-10.7-2.5-14.2-6.4c-3.5,3.9-8.6,6.4-14.2,6.4   c-5.7,0-10.7-2.5-14.2-6.4c-3.5,3.9-8.6,6.4-14.2,6.4c-5.7,0-10.7-2.5-14.2-6.4c-3.5,3.9-8.6,6.4-14.2,6.4   c-5.7,0-10.7-2.5-14.2-6.4c-3.5,3.9-8.6,6.4-14.2,6.4c-2.3,0-4.6-0.4-6.6-1.2C66.7,244.2,96,256,128,256   C160.5,256,190.2,243.9,212.8,223.9z" fill="#4CA6D3" id="XMLID_4513_"/><path d="M198.4,234.9c-1.7,0.5-3.5,0.8-5.4,0.8c-5.7,0-10.7-2.5-14.2-6.4   c-3.5,3.9-8.6,6.4-14.2,6.4c-5.7,0-10.7-2.5-14.2-6.4c-3.5,3.9-8.6,6.4-14.2,6.4c-5.7,0-10.7-2.5-14.2-6.4   c-3.5,3.9-8.6,6.4-14.2,6.4c-5.7,0-10.7-2.5-14.2-6.4c-3.5,3.9-8.6,6.4-14.2,6.4c-5.7,0-10.7-2.5-14.2-6.4c-2.1,2.4-4.9,4.2-8,5.3   C77.4,248.1,101.8,256,128,256C154,256,178.2,248.2,198.4,234.9z" fill="#4295D2" id="XMLID_4514_"/><polygon fill="#C17E5D" id="XMLID_6885_" points="56.1,178.7 87.7,178.7 81.3,94.1 62.5,94.1  "/><g id="XMLID_6886_"><path d="M95.8,94.8c-1.7,2.4-4.4,4.2-7.6,4.5c-3.2,0.3-6.2-0.8-8.3-2.8    C85.2,96.1,90.5,95.6,95.8,94.8z" fill="#EFB395" id="XMLID_6887_"/><path d="M79.9,96.4c-1.9,2.2-4.8,3.7-8,3.7c-3.2,0-6.1-1.4-8-3.7C69.3,96.7,74.6,96.7,79.9,96.4z    " fill="#EFB395" id="XMLID_6888_"/><path d="M64,96.4c-2.1,2-5,3.2-8.3,2.8c-3.2-0.3-6-2.1-7.6-4.5C53.3,95.5,58.6,96.1,64,96.4z" fill="#EFB395" id="XMLID_6889_"/></g><g id="XMLID_6890_"><path d="M98.1,109.6c-1.8,2.7-4.9,4.6-8.4,4.9c-3.5,0.4-6.8-0.9-9-3.1    C86.5,111,92.3,110.4,98.1,109.6z" fill="#EFB395" id="XMLID_6891_"/><path d="M80.7,111.4c-2.1,2.5-5.2,4-8.7,4c-3.5,0-6.7-1.6-8.7-4C69,111.6,74.8,111.6,80.7,111.4z    " fill="#EFB395" id="XMLID_6892_"/><path d="M63.2,111.4c-2.3,2.2-5.5,3.5-9,3.1c-3.5-0.4-6.5-2.3-8.4-4.9    C51.6,110.4,57.4,111,63.2,111.4z" fill="#EFB395" id="XMLID_6893_"/></g><g id="XMLID_6894_"><path d="M98.1,127.3c-1.8,2.7-4.9,4.6-8.4,4.9c-3.5,0.4-6.8-0.9-9-3.1    C86.5,128.8,92.3,128.2,98.1,127.3z" fill="#EFB395" id="XMLID_6895_"/><path d="M80.7,129.2c-2.1,2.5-5.2,4-8.7,4c-3.5,0-6.7-1.6-8.7-4C69,129.4,74.8,129.4,80.7,129.2z    " fill="#EFB395" id="XMLID_6896_"/><path d="M63.2,129.2c-2.3,2.2-5.5,3.5-9,3.1c-3.5-0.4-6.5-2.3-8.4-4.9    C51.6,128.2,57.4,128.8,63.2,129.2z" fill="#EFB395" id="XMLID_6897_"/></g><g id="XMLID_6898_"><path d="M98.1,145.1c-1.8,2.7-4.9,4.6-8.4,4.9c-3.5,0.4-6.8-0.9-9-3.1    C86.5,146.6,92.3,146,98.1,145.1z" fill="#EFB395" id="XMLID_6899_"/><path d="M80.7,146.9c-2.1,2.5-5.2,4-8.7,4c-3.5,0-6.7-1.6-8.7-4C69,147.2,74.8,147.2,80.7,146.9z    " fill="#EFB395" id="XMLID_6900_"/><path d="M63.2,146.9c-2.3,2.2-5.5,3.5-9,3.1c-3.5-0.4-6.5-2.3-8.4-4.9    C51.6,146,57.4,146.6,63.2,146.9z" fill="#EFB395" id="XMLID_6901_"/></g><g id="XMLID_6902_"><path d="M98.1,162.9c-1.8,2.7-4.9,4.6-8.4,4.9c-3.5,0.4-6.8-0.9-9-3.1    C86.5,164.4,92.3,163.8,98.1,162.9z" fill="#EFB395" id="XMLID_6903_"/><path d="M80.7,164.7c-2.1,2.5-5.2,4-8.7,4c-3.5,0-6.7-1.6-8.7-4C69,165,74.8,165,80.7,164.7z" fill="#EFB395" id="XMLID_6904_"/><path d="M63.2,164.7c-2.3,2.2-5.5,3.5-9,3.1c-3.5-0.4-6.5-2.3-8.4-4.9    C51.6,163.7,57.4,164.4,63.2,164.7z" fill="#EFB395" id="XMLID_6905_"/></g><path d="M69,69.3c0,1.6,1.3,12.6,3,12.6c1.6,0,3-11,3-12.6c0-1.6-1.3-3-3-3   C70.3,66.4,69,67.7,69,69.3z" fill="#EFB395" id="XMLID_6906_"/><circle cx="71.9" cy="82.8" fill="#DE9F75" id="XMLID_6907_" r="3"/><path d="M48.1,94.8c6.2-0.7,11.7-3.8,16.3-8.4c4.5-4.5,10.7-4.5,15.2,0c4.6,4.6,10.1,7.7,16.3,8.4   C79.9,97.3,63.9,97.3,48.1,94.8z" fill="#EFB395" id="XMLID_6908_"/><path d="M47.2,180.1c2.6-0.7,4.5-2.1,5.9-4.4h37.8c1.4,2.3,3.3,3.6,5.9,4.4H47.2z" fill="#EFB395" id="XMLID_6909_"/><g id="XMLID_6910_"><rect fill="#FFFFFF" height="4.2" id="XMLID_6911_" width="0.6" x="53.8" y="103.5"/><rect fill="#FFFFFF" height="4.2" id="XMLID_6912_" width="0.6" x="56.1" y="103.5"/><rect fill="#FFFFFF" height="4.2" id="XMLID_6913_" width="0.6" x="58.4" y="103.5"/><rect fill="#FFFFFF" height="4.2" id="XMLID_6914_" width="0.6" x="60.8" y="103.5"/><rect fill="#FFFFFF" height="4.2" id="XMLID_6915_" width="0.6" x="63.1" y="103.5"/><rect fill="#FFFFFF" height="4.2" id="XMLID_6916_" width="0.6" x="65.5" y="103.5"/><rect fill="#FFFFFF" height="4.2" id="XMLID_6917_" width="0.6" x="67.8" y="103.5"/><rect fill="#FFFFFF" height="4.2" id="XMLID_6918_" width="0.6" x="70.1" y="103.5"/><rect fill="#FFFFFF" height="4.2" id="XMLID_6919_" width="0.6" x="72.5" y="103.5"/><rect fill="#FFFFFF" height="4.2" id="XMLID_6920_" width="0.6" x="74.8" y="103.5"/><rect fill="#FFFFFF" height="4.2" id="XMLID_6921_" width="0.6" x="77.1" y="103.5"/><rect fill="#FFFFFF" height="4.2" id="XMLID_6922_" width="0.6" x="79.5" y="103.5"/><rect fill="#FFFFFF" height="4.2" id="XMLID_6923_" width="0.6" x="81.8" y="103.5"/><rect fill="#FFFFFF" height="4.2" id="XMLID_6924_" width="0.6" x="84.2" y="103.5"/><rect fill="#FFFFFF" height="4.2" id="XMLID_6925_" width="0.6" x="86.5" y="103.5"/><rect fill="#FFFFFF" height="4.2" id="XMLID_6926_" width="0.6" x="88.8" y="103.5"/><rect fill="#FFFFFF" height="4.2" id="XMLID_6927_" width="0.6" x="91.2" y="103.5"/><path d="M52.3,108.4h39.2c0.4,0,0.8-0.4,0.8-0.8v-0.1c0-0.4-0.4-0.8-0.8-0.8H52.3    c-0.4,0-0.8,0.4-0.8,0.8v0.1C51.6,108,51.9,108.4,52.3,108.4z" fill="#FFFFFF" id="XMLID_6928_"/><path d="M52.5,104h38.8c0.2,0,0.4-0.2,0.4-0.4v-0.1c0-0.2-0.2-0.4-0.4-0.4H52.5    c-0.2,0-0.4,0.2-0.4,0.4v0.1C52.1,103.8,52.3,104,52.5,104z" fill="#FFFFFF" id="XMLID_6929_"/></g><g id="XMLID_6930_"><rect fill="#FFFFFF" height="4.2" id="XMLID_6931_" width="0.6" x="53.8" y="121.1"/><rect fill="#FFFFFF" height="4.2" id="XMLID_6932_" width="0.6" x="56.1" y="121.1"/><rect fill="#FFFFFF" height="4.2" id="XMLID_6933_" width="0.6" x="58.4" y="121.1"/><rect fill="#FFFFFF" height="4.2" id="XMLID_6934_" width="0.6" x="60.8" y="121.1"/><rect fill="#FFFFFF" height="4.2" id="XMLID_6935_" width="0.6" x="63.1" y="121.1"/><rect fill="#FFFFFF" height="4.2" id="XMLID_6936_" width="0.6" x="65.5" y="121.1"/><rect fill="#FFFFFF" height="4.2" id="XMLID_6937_" width="0.6" x="67.8" y="121.1"/><rect fill="#FFFFFF" height="4.2" id="XMLID_6938_" width="0.6" x="70.1" y="121.1"/><rect fill="#FFFFFF" height="4.2" id="XMLID_6939_" width="0.6" x="72.5" y="121.1"/><rect fill="#FFFFFF" height="4.2" id="XMLID_6940_" width="0.6" x="74.8" y="121.1"/><rect fill="#FFFFFF" height="4.2" id="XMLID_6941_" width="0.6" x="77.1" y="121.1"/><rect fill="#FFFFFF" height="4.2" id="XMLID_6942_" width="0.6" x="79.5" y="121.1"/><rect fill="#FFFFFF" height="4.2" id="XMLID_6943_" width="0.6" x="81.8" y="121.1"/><rect fill="#FFFFFF" height="4.2" id="XMLID_6944_" width="0.6" x="84.2" y="121.1"/><rect fill="#FFFFFF" height="4.2" id="XMLID_6945_" width="0.6" x="86.5" y="121.1"/><rect fill="#FFFFFF" height="4.2" id="XMLID_6946_" width="0.6" x="88.8" y="121.1"/><rect fill="#FFFFFF" height="4.2" id="XMLID_6947_" width="0.6" x="91.2" y="121.1"/><path d="M52.3,125.9h39.2c0.4,0,0.8-0.4,0.8-0.8V125c0-0.4-0.4-0.8-0.8-0.8H52.3    c-0.4,0-0.8,0.4-0.8,0.8v0.1C51.6,125.5,51.9,125.9,52.3,125.9z" fill="#FFFFFF" id="XMLID_6948_"/><path d="M52.5,121.5h38.8c0.2,0,0.4-0.2,0.4-0.4V121c0-0.2-0.2-0.4-0.4-0.4H52.5    c-0.2,0-0.4,0.2-0.4,0.4v0.1C52.1,121.3,52.3,121.5,52.5,121.5z" fill="#FFFFFF" id="XMLID_6949_"/></g><g id="XMLID_6950_"><rect fill="#FFFFFF" height="4.2" id="XMLID_6951_" width="0.6" x="53.8" y="138.6"/><rect fill="#FFFFFF" height="4.2" id="XMLID_6952_" width="0.6" x="56.1" y="138.6"/><rect fill="#FFFFFF" height="4.2" id="XMLID_6953_" width="0.6" x="58.4" y="138.6"/><rect fill="#FFFFFF" height="4.2" id="XMLID_6954_" width="0.6" x="60.8" y="138.6"/><rect fill="#FFFFFF" height="4.2" id="XMLID_6955_" width="0.6" x="63.1" y="138.6"/><rect fill="#FFFFFF" height="4.2" id="XMLID_6956_" width="0.6" x="65.5" y="138.6"/><rect fill="#FFFFFF" height="4.2" id="XMLID_6957_" width="0.6" x="67.8" y="138.6"/><rect fill="#FFFFFF" height="4.2" id="XMLID_6958_" width="0.6" x="70.1" y="138.6"/><rect fill="#FFFFFF" height="4.2" id="XMLID_6959_" width="0.6" x="72.5" y="138.6"/><rect fill="#FFFFFF" height="4.2" id="XMLID_6960_" width="0.6" x="74.8" y="138.6"/><rect fill="#FFFFFF" height="4.2" id="XMLID_6961_" width="0.6" x="77.1" y="138.6"/><rect fill="#FFFFFF" height="4.2" id="XMLID_6962_" width="0.6" x="79.5" y="138.6"/><rect fill="#FFFFFF" height="4.2" id="XMLID_6963_" width="0.6" x="81.8" y="138.6"/><rect fill="#FFFFFF" height="4.2" id="XMLID_6964_" width="0.6" x="84.2" y="138.6"/><rect fill="#FFFFFF" height="4.2" id="XMLID_6965_" width="0.6" x="86.5" y="138.6"/><rect fill="#FFFFFF" height="4.2" id="XMLID_6966_" width="0.6" x="88.8" y="138.6"/><rect fill="#FFFFFF" height="4.2" id="XMLID_6967_" width="0.6" x="91.2" y="138.6"/><path d="M52.3,143.4h39.2c0.4,0,0.8-0.4,0.8-0.8v-0.1c0-0.4-0.4-0.8-0.8-0.8H52.3    c-0.4,0-0.8,0.4-0.8,0.8v0.1C51.6,143.1,51.9,143.4,52.3,143.4z" fill="#FFFFFF" id="XMLID_6968_"/><path d="M52.5,139h38.8c0.2,0,0.4-0.2,0.4-0.4v-0.1c0-0.2-0.2-0.4-0.4-0.4H52.5    c-0.2,0-0.4,0.2-0.4,0.4v0.1C52.1,138.8,52.3,139,52.5,139z" fill="#FFFFFF" id="XMLID_6969_"/></g><g id="XMLID_6970_"><rect fill="#FFFFFF" height="4.2" id="XMLID_6971_" width="0.6" x="53.8" y="156.1"/><rect fill="#FFFFFF" height="4.2" id="XMLID_6972_" width="0.6" x="56.1" y="156.1"/><rect fill="#FFFFFF" height="4.2" id="XMLID_6973_" width="0.6" x="58.4" y="156.1"/><rect fill="#FFFFFF" height="4.2" id="XMLID_6974_" width="0.6" x="60.8" y="156.1"/><rect fill="#FFFFFF" height="4.2" id="XMLID_6975_" width="0.6" x="63.1" y="156.1"/><rect fill="#FFFFFF" height="4.2" id="XMLID_6976_" width="0.6" x="65.5" y="156.1"/><rect fill="#FFFFFF" height="4.2" id="XMLID_6977_" width="0.6" x="67.8" y="156.1"/><rect fill="#FFFFFF" height="4.2" id="XMLID_6978_" width="0.6" x="70.1" y="156.1"/><rect fill="#FFFFFF" height="4.2" id="XMLID_6979_" width="0.6" x="72.5" y="156.1"/><rect fill="#FFFFFF" height="4.2" id="XMLID_6980_" width="0.6" x="74.8" y="156.1"/><rect fill="#FFFFFF" height="4.2" id="XMLID_6981_" width="0.6" x="77.1" y="156.1"/><rect fill="#FFFFFF" height="4.2" id="XMLID_6982_" width="0.6" x="79.5" y="156.1"/><rect fill="#FFFFFF" height="4.2" id="XMLID_6983_" width="0.6" x="81.8" y="156.1"/><rect fill="#FFFFFF" height="4.2" id="XMLID_6984_" width="0.6" x="84.2" y="156.1"/><rect fill="#FFFFFF" height="4.2" id="XMLID_6985_" width="0.6" x="86.5" y="156.1"/><rect fill="#FFFFFF" height="4.2" id="XMLID_6986_" width="0.6" x="88.8" y="156.1"/><rect fill="#FFFFFF" height="4.2" id="XMLID_6987_" width="0.6" x="91.2" y="156.1"/><path d="M52.3,160.9h39.2c0.4,0,0.8-0.4,0.8-0.8V160c0-0.4-0.4-0.8-0.8-0.8H52.3    c-0.4,0-0.8,0.4-0.8,0.8v0.1C51.6,160.6,51.9,160.9,52.3,160.9z" fill="#FFFFFF" id="XMLID_6988_"/><path d="M52.5,156.5h38.8c0.2,0,0.4-0.2,0.4-0.4V156c0-0.2-0.2-0.4-0.4-0.4H52.5    c-0.2,0-0.4,0.2-0.4,0.4v0.1C52.1,156.3,52.3,156.5,52.5,156.5z" fill="#FFFFFF" id="XMLID_6989_"/></g><polygon fill="#AF7054" id="XMLID_6990_" points="46.6,199 50.9,180.1 93,180.1 97.2,199  "/><path d="M182.3,89.8h4.4l-1.3-56c0-0.5-0.4-0.9-0.9-0.9l0,0c-0.5,0-0.9,0.4-0.9,0.9L182.3,89.8z" fill="#535E6F" id="XMLID_6991_"/><rect fill="#444D5B" height="3.5" id="XMLID_6992_" width="6.6" x="181.2" y="111.6"/><rect fill="#444D5B" height="3.5" id="XMLID_6993_" width="6.6" x="181.2" y="121.4"/><rect fill="#444D5B" height="3.5" id="XMLID_6994_" width="6.6" x="181.2" y="131.2"/><rect fill="#444D5B" height="3.5" id="XMLID_6995_" width="6.6" x="181.2" y="141"/><rect fill="#444D5B" height="3.5" id="XMLID_6996_" width="6.6" x="181.2" y="150.8"/><g id="XMLID_6997_"><rect fill="#535E6F" height="62.9" id="XMLID_6998_" width="3.2" x="179.7" y="103.4"/><rect fill="#535E6F" height="62.9" id="XMLID_6999_" width="3.2" x="186.3" y="103.4"/></g><circle cx="184.7" cy="98.5" fill="#E5E8EC" id="XMLID_7000_" r="10.9"/><path d="M174.4,102c-0.4-1.1-0.6-2.3-0.6-3.5c0-6,4.9-10.9,10.9-10.9c6,0,10.9,4.9,10.9,10.9   c0,1.2-0.2,2.4-0.6,3.5H174.4z" fill="#E0616A" id="XMLID_7003_"/><path d="M174.5,94.8c0.3-0.7,0.6-1.4,1-2H194c0.4,0.6,0.7,1.3,1,2H174.5z" fill="#E5E8EC" id="XMLID_7004_"/><circle cx="184.7" cy="68.6" fill="#FFFFFF" id="XMLID_7005_" r="5.1"/><g id="XMLID_7006_"><circle cx="184.5" cy="170.3" fill="#FFFFFF" id="XMLID_7007_" r="10.9"/><path d="M173.6,170.3c0,1.4,0.3,2.7,0.7,3.9h20.3c0.5-1.2,0.7-2.5,0.7-3.9s-0.3-2.7-0.7-3.9    h-20.3C173.9,167.6,173.6,168.9,173.6,170.3z" fill="#E0616A" id="XMLID_7010_"/><path d="M195.4,169.5c0,0.3,0,0.5,0,0.8c0,0.3,0,0.6,0,0.9h-21.7c0-0.3,0-0.6,0-0.9    c0-0.3,0-0.5,0-0.8H195.4z" fill="#BA4F5C" id="XMLID_7013_"/></g><g id="XMLID_7014_"><polygon fill="#535E6F" id="XMLID_7015_" points="184.8,198.8 176,192.3 177.2,190.7 186.8,197.8 186.1,198.8   "/><polygon fill="#535E6F" id="XMLID_7016_" points="186.4,198.8 185.7,197.8 195.2,190.7 196.4,192.3 187.6,198.8   "/><path d="M199.1,198.8l-11.4-18.1c-0.3-0.5-0.2-1.2,0.4-1.6c0.5-0.3,1.2-0.2,1.6,0.4l12.1,19.3    H199.1z" fill="#535E6F" id="XMLID_7017_"/><path d="M175.6,198.8h-2.5l7-19.1c0.2-0.6,0.9-0.9,1.5-0.7c0.6,0.2,0.9,0.9,0.7,1.5L175.6,198.8z    " fill="#535E6F" id="XMLID_7018_"/><path d="M184.1,198.8v-18.6c0-0.9,0.7-1.6,1.6-1.6c0.9,0,1.6,0.7,1.6,1.6v18.6H184.1z" fill="#535E6F" id="XMLID_7019_"/><circle cx="176.6" cy="191.6" fill="#535E6F" id="XMLID_7020_" r="2.5"/><circle cx="195.3" cy="191.6" fill="#535E6F" id="XMLID_7021_" r="2.5"/></g><path d="M109.1,34.5V199h45.2V34.5H109.1z M143.4,58.4h-23.2l-3.7-15.2h30.7L143.4,58.4z" fill="#E5E8EC" id="XMLID_7022_"/><path d="M131.8,154L131.8,154v45h-2.9h-19.7V34.5C119.2,59.9,127.3,102.2,131.8,154z" fill="#FFFFFF" id="XMLID_7025_"/><path d="M154.4,34.5V199h-19.7h-2.9v-45C136.3,102.2,144.3,59.9,154.4,34.5z" fill="#CED4DF" id="XMLID_7026_"/><path d="M242.4,185.5c-7.6-2.5-16.1-4.3-25.3-5.5c-11-1.4-23.1-1.9-36-1.5   c-5.7,0.2-11,0.5-15.7,0.9c0,0,0,0,0,0c-0.1,0-0.2,0-0.4,0c-0.1,0-0.3,0-0.4,0c0,0,0,0,0,0c-13.2,1.2-22.1,2.9-22.2,2.9   c-0.3,0.1-0.5,0.2-0.7,0.4l-9.7,12.5l-3.7-0.1l0,0l-0.3,0l-0.3,0l0,0l-3.7,0.1l-9.7-12.5c-0.2-0.2-0.4-0.4-0.7-0.4   c-0.1,0-9-1.7-22.2-2.9c0,0,0,0,0,0c-0.1-0.1-0.3-0.1-0.4,0c-0.1,0-0.2,0-0.4,0c0,0,0,0,0,0c-4.8-0.4-10.1-0.8-15.7-0.9   c-12.9-0.4-25,0.1-36,1.5c-9.2,1.2-17.6,3-25.3,5.5c0.4,0.7,0.7,1.4,1.1,2.2c1.7-0.5,3.3-1,5-1.5l-0.4,9.5c0.3,0.5,0.6,1,0.9,1.4   l0.5-10.6l4,7.2l-2.9,4.8l-0.6,0c1.3,2,2.7,3.9,4.1,5.8l102.7-3.2l102.7,3.2c1.4-1.9,2.8-3.8,4.1-5.8l-0.6,0l-2.9-4.8l4-7.2   l0.5,10.6c0.3-0.5,0.6-1,0.9-1.4l-0.4-9.5c1.7,0.5,3.4,1,5,1.5C241.6,187,242,186.2,242.4,185.5z M101.5,183l-4.2,6.9l-4.8-7.9   C95.8,182.3,98.9,182.7,101.5,183z M89.5,181.7l-4.2,6.8l-4.5-7.4C83.8,181.3,86.7,181.5,89.5,181.7z M74.7,180.9   c1.2,0,2.4,0.1,3.6,0.1l-4.8,7.9l-5-8.1C70.7,180.8,72.8,180.8,74.7,180.9z M67,180.7l-5.3,8.6l-5.2-8.4   C60.2,180.8,63.6,180.7,67,180.7z M55.2,181l-5.5,9l-5-8.2C48.3,181.4,51.8,181.2,55.2,181z M43.2,181.9l-5.5,9l-4.7-7.6   C36.4,182.8,39.8,182.3,43.2,181.9z M21.4,185.8c3.1-0.8,6.3-1.5,9.4-2l-5.6,9.1L21.4,185.8z M22.9,198.5l2.3-3.8l2,3.7L22.9,198.5   z M28.3,198.4l-2.5-4.6l6.2-10.2l5.1,8.3l-3.9,6.3L28.3,198.4z M34.4,198.2l3.3-5.4l3.2,5.2L34.4,198.2z M41.9,197.9l-3.7-6.1   l5.8-9.4l5.2,8.5l-4.2,6.9L41.9,197.9z M46.1,197.8l3.7-6l3.5,5.8L46.1,197.8z M54.3,197.5l-4.1-6.6l5.6-9.2l5.2,8.6l-4.4,7.2   L54.3,197.5z M57.9,197.4l3.8-6.2l3.6,6L57.9,197.4z M66.4,197.2l-4.2-6.9l5.5-9l5.2,8.5l-4.5,7.3L66.4,197.2z M69.7,197.1l3.9-6.3   l3.7,6.1L69.7,197.1z M78.4,196.8l-4.3-7l5.3-8.7c0.1,0,0.1,0,0.2,0l5.1,8.4l-4.4,7.2L78.4,196.8z M81.5,196.7l3.8-6.3l3.7,6   L81.5,196.7z M90.1,196.4l-4.2-6.9l4.7-7.7c0.2,0,0.5,0,0.7,0.1l5.5,9l-3.3,5.5L90.1,196.4z M94.5,196.3l2.7-4.5l2.6,4.3   L94.5,196.3z M102.1,196l-1.1,0l-3.2-5.2l4.3-7V196z M103.1,196v-12.8c4.8,0.6,8.2,1.2,9.4,1.4l-7.5,11.3L103.1,196z M106.2,195.9   l7-10.6l7.8,10.1L106.2,195.9z M223,183.3l-4.7,7.6l-5.5-9C216.2,182.3,219.6,182.8,223,183.3z M211.3,181.8l-5,8.2l-5.5-9   C204.2,181.2,207.7,181.4,211.3,181.8z M199.4,180.9l-5.2,8.4l-5.3-8.6C192.4,180.7,195.8,180.8,199.4,180.9z M181.3,180.9   c2-0.1,4-0.1,6.2-0.1l-5,8.1l-4.8-7.9C178.8,180.9,180,180.9,181.3,180.9z M175.2,181.1l-4.5,7.4l-4.2-6.8   C169.3,181.5,172.2,181.3,175.2,181.1z M163.6,182l-4.8,7.9l-4.2-6.9C157.1,182.7,160.2,182.3,163.6,182z M135,195.4l7.8-10.1   l7,10.6L135,195.4z M152.9,196l-2-0.1l-7.5-11.3c1.3-0.2,4.6-0.8,9.4-1.4V196z M153.9,196v-12.2l4.3,7l-3.2,5.2L153.9,196z    M156.1,196.1l2.6-4.3l2.7,4.5L156.1,196.1z M162.6,196.3l-3.3-5.5l5.5-9c0.2,0,0.5,0,0.7-0.1l4.7,7.7l-4.2,6.9L162.6,196.3z    M167,196.4l3.7-6l3.8,6.3L167,196.4z M175.7,196.7l-4.4-7.2l5.1-8.4c0.1,0,0.1,0,0.2,0l5.3,8.7l-4.3,7L175.7,196.7z M178.7,196.8   l3.7-6.1l3.9,6.3L178.7,196.8z M187.5,197.1l-4.5-7.3l5.2-8.5l5.5,9l-4.2,6.9L187.5,197.1z M190.7,197.2l3.6-6l3.8,6.2L190.7,197.2   z M199.2,197.5l-4.4-7.2l5.2-8.6l5.6,9.2l-4.1,6.6L199.2,197.5z M202.8,197.6l3.5-5.8l3.7,6L202.8,197.6z M211.1,197.8l-4.2-6.9   l5.2-8.5l5.8,9.4l-3.7,6.1L211.1,197.8z M215.2,198l3.2-5.2l3.3,5.4L215.2,198z M222.7,198.2l-3.9-6.3l5.1-8.3l6.2,10.2l-2.5,4.6   L222.7,198.2z M233.1,198.5l-4.3-0.1l2-3.7L233.1,198.5z M230.7,192.8l-5.6-9.1c3.2,0.6,6.3,1.3,9.4,2L230.7,192.8z" fill="#E5E8EC" id="XMLID_7027_"/></g></svg>