<svg xmlns="http://www.w3.org/2000/svg" version="1.1" width="1024" height="1024">
<rect x="0" y="0" width="1024" height="1024" fill="#83835a" />
<g transform="scale(4.000000) translate(0.5 0.5)">
<polygon fill="#181e23" fill-opacity="0.501961" points="84,167 97,85 196,180" />
<polygon fill="#bca383" fill-opacity="0.501961" points="252,271 271,137 -16,245" />
<polygon fill="#daf5ff" fill-opacity="0.501961" points="95,63 105,89 47,67" />
<polygon fill="#446423" fill-opacity="0.501961" points="43,-16 -16,68 25,196" />
<polygon fill="#d3bd88" fill-opacity="0.501961" points="129,159 106,116 95,165" />
<polygon fill="#001639" fill-opacity="0.501961" points="99,28 101,121 138,158" />
<polygon fill="#497222" fill-opacity="0.501961" points="129,-16 271,101 231,12" />
<polygon fill="#bda487" fill-opacity="0.501961" points="99,271 146,195 26,135" />
<polygon fill="#dcbba2" fill-opacity="0.501961" points="185,125 230,110 255,167" />
<polygon fill="#000000" fill-opacity="0.501961" points="88,116 91,165 105,115" />
<polygon fill="#a59d65" fill-opacity="0.501961" points="116,100 187,161 141,158" />
<polygon fill="#bfd9ff" fill-opacity="0.501961" points="106,80 81,59 90,110" />
<polygon fill="#051b0d" fill-opacity="0.501961" points="122,167 192,178 202,158" />
<polygon fill="#767d4b" fill-opacity="0.501961" points="230,153 183,271 155,180" />
<polygon fill="#c1d3e3" fill-opacity="0.501961" points="100,58 123,66 157,50" />
<polygon fill="#dbbca3" fill-opacity="0.501961" points="219,184 242,271 266,233" />
<polygon fill="#687a3b" fill-opacity="0.501961" points="64,-16 218,35 64,67" />
<polygon fill="#bc9f80" fill-opacity="0.501961" points="27,242 65,143 42,90" />
<polygon fill="#5b6d38" fill-opacity="0.501961" points="70,191 81,75 49,69" />
<polygon fill="#3e6394" fill-opacity="0.501961" points="113,49 90,112 119,107" />
<polygon fill="#000000" fill-opacity="0.501961" points="109,118 118,98 135,160" />
<polygon fill="#356c10" fill-opacity="0.501961" points="271,47 223,-10 263,-7" />
<polygon fill="#4c6028" fill-opacity="0.501961" points="230,238 214,208 208,230" />
<polygon fill="#425b26" fill-opacity="0.501961" points="13,165 24,79 -16,150" />
<polygon fill="#153e7b" fill-opacity="0.501961" points="147,59 112,76 95,68" />
<polygon fill="#b69f7d" fill-opacity="0.501961" points="35,271 15,166 75,271" />
<polygon fill="#000000" fill-opacity="0.501961" points="88,151 98,121 96,174" />
<polygon fill="#ffeaf7" fill-opacity="0.501961" points="28,66 39,69 23,58" />
<polygon fill="#847d50" fill-opacity="0.501961" points="70,271 45,205 78,139" />
<polygon fill="#f0f8ff" fill-opacity="0.501961" points="65,68 103,80 89,62" />
</g>
</svg>