<svg xmlns="http://www.w3.org/2000/svg" width="1024" height="1020"><path fill="#71685e" d="M0 0h1024v1020H0z"/><g fill-opacity=".5"><path fill="#ffffb5" d="M206 574L382-62l124 1144"/><path fill="#00003a" d="M770 534l316 456-420 92"/><path fill="#ffcd82" d="M658 174L558 618l392-132"/><path fill="#000016" d="M1086 610L754 214l268-276"/><path fill="#00000e" d="M-62 586l348-416L122-62"/><path fill="#000035" d="M122 626L-62 998l304 84"/><path fill="#fbf7b6" d="M270-62l216 316-180 468"/><path fill="#c2c18e" d="M146 878l572-44-120 248"/><path fill="#000034" d="M622 1082l424-452 24 380"/><path fill="#f96900" d="M290 582l-180 24-20-276"/><path fill="#0b0020" d="M634 270l244-76-324-32"/><path fill="#d9d7a0" d="M534-62l8 464-96-332"/><path fill="#ffffa5" d="M570 302l216-48 20 112"/><path fill="#0c081d" d="M526 598l-52-244-28 464"/><path fill="#220d0c" d="M-62 118l292 168-32 164"/><path fill="#485387" d="M710 922l264-628 92 424"/><path fill="#f4fd91" d="M22-50l-4 212 88-144"/><path fill="#ffbe7e" d="M622 410l44 196 264-220"/><path fill="#00002e" d="M190 906l20-316 44 216"/><path fill="#001" d="M50 58l228 88-196 96"/><path fill="#a9a67e" d="M262 986l440 96-488-696"/><path fill="#030928" d="M1086 102L910-62l-80 476"/><path fill="#050b30" d="M838-58L818 94 590 6"/><path fill="#cbb48a" d="M510 826l64-136-72-244"/><path fill="#000056" d="M930 602l-212 60-28-92"/><path fill="#dcdaa2" d="M210 726l-52-132-44 152"/><path fill="#d6be93" d="M966 650l68 104-228-120"/><path fill="#c7c78b" d="M470 574L390-62 242 54"/><path fill="#46262c" d="M538 690l4-292 96 180"/><path fill="#000327" d="M-6 746l-28 304 248 32"/><path fill="#34313a" d="M494 98l4 340-68-212"/><path fill="#ecd796" d="M546 422l-36 148-8-292"/><path fill="#4d102a" d="M690 414l-104-36 244-8"/><path fill="#efe6cb" d="M654 846l20 160 40-288"/><path fill="#56524d" d="M510 706l-76-100 8 352"/><path fill="#e3c99b" d="M826 578l92 4 48-104"/><path fill="#000013" d="M698 810l4 144 76-244"/><path fill="#fbf5d2" d="M374 414L286 94v560"/><path fill="#000031" d="M162 494l-16-72-44 64"/><path fill="#695e59" d="M230 190l64 200L86 246"/><path fill="#f55300" d="M226 394L106 614l104-20"/><path fill="#000321" d="M1086 1002l-84-268-232 336"/><path fill="#2b3c67" d="M-18 774l160 220 176-248"/><path fill="#8e8e84" d="M890 198L874-62l-72 232"/><path fill="#ffe89d" d="M646 382l140-136-188 36"/><path fill="#5a566a" d="M530 734l152 20-40 268"/><path fill="#f9a82f" d="M66 398l64-52 52 92"/><path fill="#001d77" d="M782 578l296 120-124-100"/><path fill="#5ea272" d="M146 30L-10 62l308 44"/><path d="M122 590L86 790l64-132"/></g></svg>